<?xml version="1.0" encoding="UTF-8"?>
<svg version="1.1" xmlns="http://www.w3.org/2000/svg" width="406" height="427">
<path d="M0 0 C37.76572008 -0.79852891 73.39891094 12.90912851 100.83203125 38.75 C120.22611385 57.37543555 133.2728768 79.31021092 140.703125 105.18359375 C141.00138184 106.20815674 141.00138184 106.20815674 141.30566406 107.25341797 C150.72451413 141.83497641 145.3547629 180.1442409 128.01220703 211.27441406 C108.80771098 244.76053857 79.19555208 269.24233763 41.890625 279.87109375 C40.84745117 280.16947144 40.84745117 280.16947144 39.78320312 280.47387695 C27.87899219 283.6766373 16.02955136 284.50235917 3.765625 284.43359375 C2.67388474 284.42936401 2.67388474 284.42936401 1.56008911 284.42504883 C-23.91639568 284.27694801 -48.1119633 278.56251129 -70.046875 265.12109375 C-71.06394531 264.5075 -72.08101563 263.89390625 -73.12890625 263.26171875 C-105.45543001 242.75577183 -127.66108337 210.19627502 -136.046875 173.0234375 C-143.79954948 136.26283933 -137.58872501 97.97870581 -117.40917969 66.12304688 C-112.23755503 58.27785147 -106.3459079 51.08071694 -100.046875 44.12109375 C-99.29277344 43.27160156 -98.53867188 42.42210937 -97.76171875 41.546875 C-74.54277015 16.81451294 -39.67540735 1.96145838 -6.03125 0.2109375 C-4.0205151 0.1504049 -2.01005898 0.07988696 0 0 Z M-33.046875 48.12109375 C-34.0678125 48.46785156 -35.08875 48.81460938 -36.140625 49.171875 C-59.98653627 57.9858879 -78.49819594 78.40305687 -89.1875 100.89453125 C-100.38008164 125.54784499 -100.66735648 152.4884662 -91.86230469 177.96728516 C-88.42410321 187.04866644 -83.81266924 195.33326751 -78.046875 203.12109375 C-77.386875 202.79109375 -76.726875 202.46109375 -76.046875 202.12109375 C-75.54212372 200.0025524 -75.54212372 200.0025524 -75.234375 197.49609375 C-74.21755178 192.27838046 -73.12242082 188.67456552 -69.046875 185.12109375 C-57.06356036 177.25920813 -38.52877789 170.39652296 -24.046875 171.12109375 C-21.70849413 172.28641781 -19.82241009 173.63417283 -17.7421875 175.21484375 C-14.25431919 177.68162597 -10.59658702 179.61837922 -6.796875 181.55859375 C-6.11093262 181.92460693 -5.42499023 182.29062012 -4.71826172 182.66772461 C-1.96922309 184.05902682 0.30014705 185.12420317 3.4140625 185.109375 C7.20538015 183.63367751 10.75129924 181.80333005 14.328125 179.87109375 C15.05773437 179.48824219 15.78734375 179.10539063 16.5390625 178.7109375 C20.14475281 176.78575642 23.34505978 174.84098965 26.50390625 172.2421875 C29.39138781 170.13013977 29.85502959 170.11651935 33.72265625 170.296875 C35.07957687 170.64113327 36.42751814 171.02223339 37.765625 171.43359375 C38.49265625 171.63291504 39.2196875 171.83223633 39.96875 172.03759766 C42.30938433 172.69527589 44.63000746 173.40418859 46.953125 174.12109375 C47.74380371 174.35328613 48.53448242 174.58547852 49.34912109 174.82470703 C71.37082793 181.31592923 71.37082793 181.31592923 77.953125 191.12109375 C78.69260174 193.78376186 79.26324751 196.22964096 79.703125 198.93359375 C79.82816406 199.62646484 79.95320312 200.31933594 80.08203125 201.03320312 C80.38571645 202.72683214 80.67129218 204.42369156 80.953125 206.12109375 C96.56821341 191.34494424 103.76843269 167.72042501 104.42626953 146.67675781 C104.69748817 117.07940709 94.78723003 91.46200055 74.109375 70.19140625 C58.98439244 55.18809744 38.1539229 44.71590629 16.953125 42.12109375 C15.93347656 41.98703125 14.91382813 41.85296875 13.86328125 41.71484375 C-2.3539734 40.04959473 -17.85418918 42.48989172 -33.046875 48.12109375 Z M-0.046875 196.12109375 C0.283125 197.77109375 0.613125 199.42109375 0.953125 201.12109375 C2.273125 200.46109375 3.593125 199.80109375 4.953125 199.12109375 C4.623125 198.13109375 4.293125 197.14109375 3.953125 196.12109375 C2.633125 196.12109375 1.313125 196.12109375 -0.046875 196.12109375 Z M0.953125 208.12109375 C0.623125 209.77109375 0.293125 211.42109375 -0.046875 213.12109375 C1.603125 212.79109375 3.253125 212.46109375 4.953125 212.12109375 C4.293125 210.80109375 3.633125 209.48109375 2.953125 208.12109375 C2.293125 208.12109375 1.633125 208.12109375 0.953125 208.12109375 Z M-60.046875 220.12109375 C-60.046875 220.78109375 -60.046875 221.44109375 -60.046875 222.12109375 C-37.3363448 239.45584022 -10.14369217 246.63997175 18.18359375 242.90234375 C35.9748298 240.19349388 53.18645517 232.81692977 66.953125 221.12109375 C66.953125 220.79109375 66.953125 220.46109375 66.953125 220.12109375 C25.043125 220.12109375 -16.866875 220.12109375 -60.046875 220.12109375 Z " fill="#21E058" transform="translate(197.046875,33.87890625)"/>
<path d="M0 0 C0.495 0.495 0.495 0.495 1 1 C2.79035937 1.03795815 4.58087874 1.07244889 6.37158203 1.08691406 C17.22913568 1.27565692 17.22913568 1.27565692 21.625 5.25 C22.76660738 6.48485125 23.89297225 7.73405586 25 9 C26.08780909 9.89525438 27.19099782 10.77233248 28.3125 11.625 C33.93723055 16.59569211 36.66775013 23.76381414 37.25 31.1875 C36.98491372 34.16972064 36.55175419 37.05731099 36 40 C35.7215625 41.670625 35.7215625 41.670625 35.4375 43.375 C35.293125 44.24125 35.14875 45.1075 35 46 C36.36125 46.0928125 36.36125 46.0928125 37.75 46.1875 C41 47 41 47 43.375 48.8125 C46.1347909 54.22593599 45.93735319 60.38359007 44.421875 66.23046875 C43.17620888 69.33800818 41.69447697 71.97914227 39 74 C37.515 74.495 37.515 74.495 36 75 C35.29095186 77.4966907 34.74388623 79.8982899 34.25 82.4375 C32.01719327 92.30937479 28.30084853 99.04213402 19.8125 104.9375 C9.67911333 110.80127916 -0.25527491 112.22957113 -11.55859375 109.34765625 C-20.31612179 106.38293927 -27.54544232 100.299759 -32 92.1875 C-34.14381972 87.43834382 -34.81882907 82.73372041 -35.25 77.56640625 C-35.77729806 74.77590735 -35.77729806 74.77590735 -38.45703125 73.2578125 C-39.29621094 72.84273438 -40.13539063 72.42765625 -41 72 C-45.19552929 67.80447071 -45.82408677 62.0405935 -46.3125 56.375 C-45.9516072 52.47735775 -45.24238783 50.21408922 -43 47 C-39.8125 45.625 -39.8125 45.625 -37 45 C-37.12375 43.72125 -37.2475 42.4425 -37.375 41.125 C-37.44460937 40.40570313 -37.51421875 39.68640625 -37.5859375 38.9453125 C-37.86374749 36.77331755 -37.86374749 36.77331755 -40 35 C-40.46573034 29.97011236 -40.03282118 27.88201111 -37 24 C-36.896875 22.845 -36.79375 21.69 -36.6875 20.5 C-36 17 -36 17 -33.125 14.875 C-32.09375 14.25625 -31.0625 13.6375 -30 13 C-29.505 12.13375 -29.01 11.2675 -28.5 10.375 C-26.49811275 7.20534519 -24.49249197 7.06293234 -21 6 C-20.67 5.01 -20.34 4.02 -20 3 C-16.71029094 0.68501955 -13.90700159 1 -10 1 C-9.34 0.649375 -8.68 0.29875 -8 -0.0625 C-5.10360137 -1.42018686 -3.03558724 -0.74203244 0 0 Z M-23 32 C-26.89028705 36.10641411 -28.29650424 39.86149337 -28.3125 45.5 C-28.23335319 47.00152805 -28.13806703 48.50273977 -28 50 C-28.84304687 49.97679687 -29.68609375 49.95359375 -30.5546875 49.9296875 C-31.65039062 49.91164063 -32.74609375 49.89359375 -33.875 49.875 C-34.96554688 49.85179687 -36.05609375 49.82859375 -37.1796875 49.8046875 C-40.1371051 49.69939466 -40.1371051 49.69939466 -42 52 C-42.7685288 58.10830685 -42.66161822 63.8466114 -39 69 C-38.01 69.33 -37.02 69.66 -36 70 C-36 68.68 -36 67.36 -36 66 C-34.68 66 -33.36 66 -32 66 C-32.03480469 67.14275391 -32.03480469 67.14275391 -32.0703125 68.30859375 C-32.28384409 80.5256509 -30.66938479 88.88966414 -22.109375 98.015625 C-14.50949186 105.13677535 -7.82863962 106.58838578 2.51953125 106.35546875 C9.49939053 105.64259872 16.05538145 103.08196906 21 98 C29.12177927 87.67076278 30.49908094 78.99458901 30 66 C31.32 66 32.64 66 34 66 C34 67.32 34 68.64 34 70 C37.34676814 68.96134782 38.02532602 67.95387047 39.75 64.8125 C41.1490078 61.1228091 41.44740958 57.95211795 41 54 C39.99381139 51.70131304 39.99381139 51.70131304 38 50 C34.80197224 49.51533634 34.80197224 49.51533634 31.3125 49.75 C30.13300781 49.78609375 28.95351562 49.8221875 27.73828125 49.859375 C26.83464844 49.90578125 25.93101562 49.9521875 25 50 C25.06960937 49.21496094 25.13921875 48.42992187 25.2109375 47.62109375 C25.64449691 40.28227595 25.64449691 40.28227595 22.625 33.8125 C18.52915144 29.91529536 14.43583476 29.95225741 9 30 C7.61848901 29.99966048 6.23697805 29.99828216 4.85546875 29.99609375 C2.64990049 29.99392552 0.44625303 29.99881802 -1.7590332 30.03540039 C-5.33823505 30.08175337 -8.74598122 29.94858582 -12.29296875 29.44140625 C-16.95533257 28.88624596 -19.02135909 29.52273302 -23 32 Z " fill="#21E058" transform="translate(200,97)"/>
<path d="M0 0 C3.3 0 6.6 0 10 0 C13.96 9.9 17.92 19.8 22 30 C23.07955212 26.76134365 23.20441741 24.20844162 23.31640625 20.80078125 C23.35830078 19.59228516 23.40019531 18.38378906 23.44335938 17.13867188 C23.48267578 15.87603516 23.52199219 14.61339844 23.5625 13.3125 C23.60568359 12.03826172 23.64886719 10.76402344 23.69335938 9.45117188 C23.7995486 6.30089148 23.90159533 3.15053161 24 0 C26.64 0 29.28 0 32 0 C32 16.83 32 33.66 32 51 C28.7 51 25.4 51 22 51 C18.59441016 44.50125976 15.88021422 37.84442362 13.25 31 C11.8475 27.37 10.445 23.74 9 20 C8.67 30.23 8.34 40.46 8 51 C5.36 51 2.72 51 0 51 C0 34.17 0 17.34 0 0 Z M23 32 C24 34 24 34 24 34 Z " fill="#2ADB5D" transform="translate(99,330)"/>
<path d="M0 0 C3.3 0 6.6 0 10 0 C14.29 10.56 18.58 21.12 23 32 C23.33 21.44 23.66 10.88 24 0 C26.64 0 29.28 0 32 0 C32 16.83 32 33.66 32 51 C28.7 51 25.4 51 22 51 C18.59441016 44.50125976 15.88021422 37.84442362 13.25 31 C11.8475 27.37 10.445 23.74 9 20 C8.67 30.23 8.34 40.46 8 51 C5.36 51 2.72 51 0 51 C0 34.17 0 17.34 0 0 Z " fill="#3CD168" transform="translate(239,330)"/>
<path d="M0 0 C0.66 0 1.32 0 2 0 C1.9375 1.8125 1.9375 1.8125 1 4 C-0.155 4.474375 -1.31 4.94875 -2.5 5.4375 C-3.655 5.953125 -4.81 6.46875 -6 7 C-6.66347631 9.48400985 -6.66347631 9.48400985 -7 12 C-9.63002642 13.93791421 -11.90113556 14.96704519 -15 16 C-14.98839844 16.74765625 -14.97679687 17.4953125 -14.96484375 18.265625 C-14.95130859 19.74289063 -14.95130859 19.74289063 -14.9375 21.25 C-14.92589844 22.22453125 -14.91429687 23.1990625 -14.90234375 24.203125 C-15 27 -15 27 -15.578125 29.25 C-15.71734375 29.8275 -15.8565625 30.405 -16 31 C-14.89661743 32.85353452 -14.89661743 32.85353452 -13 34 C-11.68 34 -10.36 34 -9 34 C-8.67 33.34 -8.34 32.68 -8 32 C-4.91722795 28.57469772 -2.51629304 26.12907326 2 25 C5.00856097 24.8528697 7.99093829 24.88199758 11 25 C11.495 25.99 11.495 25.99 12 27 C10.2365625 26.9071875 10.2365625 26.9071875 8.4375 26.8125 C4.00147772 26.84390547 0.86776996 27.69421406 -3 30 C-7.16059924 35.36498323 -7.73127784 40.32225422 -8 47 C-8.85464844 47.06058594 -9.70929688 47.12117188 -10.58984375 47.18359375 C-11.69457031 47.26738281 -12.79929688 47.35117188 -13.9375 47.4375 C-15.03964844 47.51871094 -16.14179688 47.59992188 -17.27734375 47.68359375 C-19.91109903 47.70418084 -19.91109903 47.70418084 -21 49 C-21.55292403 55.24166163 -21.65231943 60.66199468 -18 66 C-17.34 66.33 -16.68 66.66 -16 67 C-16 65.68 -16 64.36 -16 63 C-14.68 63 -13.36 63 -12 63 C-11.91363281 64.18335938 -11.82726562 65.36671875 -11.73828125 66.5859375 C-10.76449973 78.19026956 -9.44373284 87.05869099 -0.6875 95.4375 C7.62634938 102.18398433 15.36117009 103.07462928 26 102 C32.28910249 100.4506317 36.81683566 98.04440406 41 93 C41.680625 92.29875 42.36125 91.5975 43.0625 90.875 C48.83642385 82.30724203 49.70468859 73.11441585 50 63 C51.32 63 52.64 63 54 63 C54 64.32 54 65.64 54 67 C58.75235092 62.61321454 59.85574072 60.74092623 60.1875 54.4375 C60.28554031 50.87737082 60.28554031 50.87737082 58 48 C54.88389446 47.41407366 54.88389446 47.41407366 51.375 47.3125 C50.18648438 47.24675781 48.99796875 47.18101562 47.7734375 47.11328125 C46.85820312 47.07589844 45.94296875 47.03851563 45 47 C45 43.04 45 39.08 45 35 C45.33 35 45.66 35 46 35 C46.495 39.95 46.495 39.95 47 45 C50.465 44.505 50.465 44.505 54 44 C54 42.02 54 40.04 54 38 C54.66 37.67 55.32 37.34 56 37 C55.67 38.98 55.34 40.96 55 43 C56.36125 43.0928125 56.36125 43.0928125 57.75 43.1875 C61 44 61 44 63.375 45.8125 C66.1347909 51.22593599 65.93735319 57.38359007 64.421875 63.23046875 C63.17620888 66.33800818 61.69447697 68.97914227 59 71 C57.515 71.495 57.515 71.495 56 72 C55.29095186 74.4966907 54.74388623 76.8982899 54.25 79.4375 C52.01719327 89.30937479 48.30084853 96.04213402 39.8125 101.9375 C29.67911333 107.80127916 19.74472509 109.22957113 8.44140625 106.34765625 C-0.31612179 103.38293927 -7.54544232 97.299759 -12 89.1875 C-14.14381972 84.43834382 -14.81882907 79.73372041 -15.25 74.56640625 C-15.77729806 71.77590735 -15.77729806 71.77590735 -18.45703125 70.2578125 C-19.29621094 69.84273438 -20.13539063 69.42765625 -21 69 C-25.19552929 64.80447071 -25.82408677 59.0405935 -26.3125 53.375 C-25.9516072 49.47735775 -25.24238783 47.21408922 -23 44 C-19.8125 42.625 -19.8125 42.625 -17 42 C-17.12375 40.72125 -17.2475 39.4425 -17.375 38.125 C-17.44460937 37.40570313 -17.51421875 36.68640625 -17.5859375 35.9453125 C-17.86374749 33.77331755 -17.86374749 33.77331755 -20 32 C-20.46573034 26.97011236 -20.03282118 24.88201111 -17 21 C-16.896875 19.845 -16.79375 18.69 -16.6875 17.5 C-16 14 -16 14 -13.125 11.875 C-12.09375 11.25625 -11.0625 10.6375 -10 10 C-9.505 9.13375 -9.01 8.2675 -8.5 7.375 C-6.49811275 4.20534519 -4.49249197 4.06293234 -1 3 C-0.67 2.01 -0.34 1.02 0 0 Z " fill="#2FD463" transform="translate(180,100)"/>
<path d="M0 0 C5.14835392 2.30788279 6.88001671 4.87714574 9 10 C9.38818359 13.61523438 9.38818359 13.61523438 9.3984375 17.59375 C9.40130768 18.30349976 9.40417786 19.01324951 9.40713501 19.74450684 C9.40916596 21.23706872 9.40370422 22.72965781 9.39111328 24.22216797 C9.37504403 26.49377522 9.39099325 28.76360367 9.41015625 31.03515625 C9.40817364 32.49219139 9.40432961 33.94922543 9.3984375 35.40625 C9.39505371 36.71916016 9.39166992 38.03207031 9.38818359 39.38476562 C8.8394977 44.49479125 7.24358317 47.75641683 3.625 51.375 C-1.77343231 53.7949869 -7.17065929 53.80983332 -13 53 C-17.20480661 51.11842467 -19.02884374 49.12979415 -21 45 C-21.32265748 42.14723787 -21.49140048 39.51684845 -21.50390625 36.6640625 C-21.51389145 35.86648529 -21.52387665 35.06890808 -21.53416443 34.24716187 C-21.54930896 32.5645667 -21.55639136 30.881882 -21.5559082 29.19921875 C-21.5624639 26.63909806 -21.61695728 24.08287153 -21.67382812 21.5234375 C-21.68263289 19.88282566 -21.6885853 18.24219554 -21.69140625 16.6015625 C-21.7129628 15.84404694 -21.73451935 15.08653137 -21.75672913 14.30606079 C-21.68822171 8.93153623 -20.15168748 6.2244568 -16.48350525 2.32650757 C-12.10157397 -1.59168889 -5.49687106 -0.47479057 0 0 Z M-10.65600586 7.53710938 C-13.7051996 10.74097006 -13.70989991 13.26187842 -13.62890625 17.46875 C-13.63131821 18.186073 -13.63373016 18.903396 -13.63621521 19.64245605 C-13.63523798 21.15541119 -13.62187341 22.66840262 -13.59692383 24.18115234 C-13.56260242 26.49310107 -13.5762679 28.80122758 -13.59570312 31.11328125 C-13.58880435 32.58595372 -13.57913167 34.05861635 -13.56640625 35.53125 C-13.57136612 36.21989136 -13.57632599 36.90853271 -13.58143616 37.61804199 C-13.50003933 40.94596869 -13.18056089 42.75468037 -11.18725586 45.46289062 C-8.9596259 47.33362849 -8.9596259 47.33362849 -5.4375 47.0625 C-1.9350299 46.33687728 -1.9350299 46.33687728 -0.31005859 43.84960938 C1.24485888 40.46738859 1.38757094 38.05907767 1.3984375 34.34375 C1.40230469 33.07402344 1.40617187 31.80429687 1.41015625 30.49609375 C1.39855469 29.17738281 1.38695312 27.85867188 1.375 26.5 C1.38660156 25.18128906 1.39820313 23.86257813 1.41015625 22.50390625 C1.40435547 20.59931641 1.40435547 20.59931641 1.3984375 18.65625 C1.39505371 17.49931641 1.39166992 16.34238281 1.38818359 15.15039062 C0.9584012 11.66239567 0.13350272 9.77248333 -2 7 C-5.7114618 5.62837281 -7.20810035 5.54170418 -10.65600586 7.53710938 Z " fill="#34D365" transform="translate(84,329)"/>
<path d="M0 0 C4.33932177 1.79558142 5.53502238 3.07450498 7.62890625 7.2421875 C9.85509886 13.49997796 9.39443572 20.07014227 9.3125 26.625 C9.31733398 28.57019531 9.31733398 28.57019531 9.32226562 30.5546875 C9.24349236 44.47607109 9.24349236 44.47607109 4.5 49.8125 C-0.04252997 53.78721372 -3.90332565 53.33065107 -9.78515625 53.28515625 C-14.1635468 52.89679354 -15.87611042 52.03946013 -19 49 C-21.62006239 45.22645103 -21.30599095 41.10995029 -21.30078125 36.69140625 C-21.30506638 35.88767075 -21.3093515 35.08393524 -21.31376648 34.25584412 C-21.31949992 32.55883728 -21.3200173 30.86180588 -21.31567383 29.16479492 C-21.31251516 26.57492956 -21.33597969 23.98620849 -21.36132812 21.39648438 C-21.36360143 19.7447931 -21.36430447 18.09309877 -21.36328125 16.44140625 C-21.372491 15.67043106 -21.38170074 14.89945587 -21.39118958 14.1051178 C-21.35218132 9.54922527 -20.81606773 6.62235596 -18 3 C-12.557209 -1.25188972 -6.59748532 -0.72198896 0 0 Z M-12 8 C-13.4847557 10.96951139 -13.20384382 14.01491059 -13.23828125 17.2734375 C-13.246353 17.99359039 -13.25442474 18.71374329 -13.26274109 19.45571899 C-13.27657614 20.98054602 -13.2873009 22.50540394 -13.29516602 24.03027344 C-13.3123841 26.35932201 -13.35627204 28.6869525 -13.40039062 31.015625 C-13.41051744 32.4973854 -13.41903358 33.97915786 -13.42578125 35.4609375 C-13.44328934 36.15585297 -13.46079742 36.85076843 -13.47883606 37.56674194 C-13.46380346 40.92685232 -13.19577259 42.73038453 -11.19995117 45.47900391 C-8.94824065 47.35915109 -8.94824065 47.35915109 -5.375 46.875 C-1.95457945 46.29259286 -1.95457945 46.29259286 0 44 C1.53205204 38.32505443 1.223118 32.45839464 1.25 26.625 C1.270625 25.51382812 1.29125 24.40265625 1.3125 23.2578125 C1.3417915 17.10659794 1.20753939 12.34089111 -2 7 C-5.93109421 5.57811486 -8.54737552 5.57037537 -12 8 Z " fill="#2BD95D" transform="translate(224,329)"/>
<path d="M0 0 C18 0 18 0 24 4 C28.49153618 9.54543607 27.48463053 16.37823056 27.44604492 23.14672852 C27.43753725 25.42751403 27.46631465 27.70578982 27.49804688 29.98632812 C27.49965932 31.44791592 27.49908052 32.90950812 27.49609375 34.37109375 C27.49887329 36.3500061 27.49887329 36.3500061 27.50170898 38.36889648 C26.9114372 42.6409706 25.76424015 44.71574549 23 48 C18 51 18 51 0 51 C0 34.17 0 17.34 0 0 Z M8 6 C8 18.87 8 31.74 8 45 C13.78064467 45.5924885 13.78064467 45.5924885 16.83349609 42.91601562 C19.42783255 39.42415687 19.64304795 37.65473443 19.6640625 33.34375 C19.67050781 32.07402344 19.67695312 30.80429687 19.68359375 29.49609375 C19.65458984 27.51802734 19.65458984 27.51802734 19.625 25.5 C19.64433594 24.18128906 19.66367187 22.86257813 19.68359375 21.50390625 C19.67714844 20.23417969 19.67070313 18.96445312 19.6640625 17.65625 C19.65560303 15.92084961 19.65560303 15.92084961 19.64697266 14.15039062 C18.79411098 9.997437 17.39144426 8.49434501 14 6 C12.02 6 10.04 6 8 6 Z " fill="#27DB5C" transform="translate(29,330)"/>
<path d="M0 0 C2.64 0 5.28 0 8 0 C8.01981934 1.1552417 8.03963867 2.3104834 8.06005859 3.50073242 C8.13626941 7.79668561 8.22496289 12.09230692 8.31738281 16.38793945 C8.35560866 18.24529456 8.39047263 20.10272208 8.421875 21.96020508 C8.46766461 24.63388912 8.52563579 27.30707742 8.5859375 29.98046875 C8.59748871 30.80773972 8.60903992 31.63501068 8.62094116 32.48735046 C8.72958591 36.75464411 9.04126423 40.10658311 11 44 C14.35458155 44.76522801 14.35458155 44.76522801 18 45 C20.09282492 43.50332002 20.881825 42.57949661 21.39872742 40.04475403 C21.40983047 39.30529037 21.42093353 38.56582672 21.43237305 37.80395508 C21.45216721 36.96331009 21.47196136 36.1226651 21.49235535 35.25654602 C21.49874527 34.35333115 21.50513519 33.45011627 21.51171875 32.51953125 C21.52966995 31.59154221 21.54762115 30.66355316 21.56611633 29.70744324 C21.62031291 26.74250843 21.654145 23.77773545 21.6875 20.8125 C21.72066482 18.80271181 21.75515369 16.792945 21.79101562 14.78320312 C21.87604479 9.85558535 21.94281138 4.92801636 22 0 C24.64 0 27.28 0 30 0 C30.07423798 6.17469663 30.12864413 12.34913261 30.16479492 18.52416992 C30.17986772 20.62415086 30.20032941 22.7241004 30.22631836 24.82397461 C30.26276754 27.84496824 30.27974159 30.86554511 30.29296875 33.88671875 C30.30845261 34.82335861 30.32393646 35.75999847 30.33988953 36.72502136 C30.34115354 41.63696309 30.25138106 45.03814283 27 49 C21.56117391 53.24879235 15.59374005 52.72987311 9 52 C4.27818495 49.96473489 2.5250229 47.7894604 0.6043396 43.0697937 C-0.52416558 39.2047931 -0.36485318 35.34347222 -0.29296875 31.34765625 C-0.28872391 30.44752304 -0.28447906 29.54738983 -0.28010559 28.61997986 C-0.26341816 25.76717214 -0.22578497 22.91509137 -0.1875 20.0625 C-0.1724403 18.11915088 -0.15875415 16.17579061 -0.14648438 14.23242188 C-0.11354726 9.48800451 -0.0618344 4.74412517 0 0 Z " fill="#25DD5B" transform="translate(291,330)"/>
<path d="M0 0 C2.64 0 5.28 0 8 0 C10.17385244 6.20311269 11.94757769 12.42285257 13.48046875 18.8125 C13.80704216 20.15489746 13.80704216 20.15489746 14.14021301 21.52441406 C14.59485416 23.3962143 15.04769012 25.26845387 15.4987793 27.14111328 C16.19251676 30.02082462 16.8916824 32.8991768 17.59179688 35.77734375 C18.03416523 37.60148709 18.47623358 39.42570322 18.91796875 41.25 C19.12729538 42.11343018 19.33662201 42.97686035 19.55229187 43.86645508 C21 49.88241947 21 49.88241947 21 51 C18.36 51 15.72 51 13 51 C11.515 46.545 11.515 46.545 10 42 C6.04 41.67 2.08 41.34 -2 41 C-2.66 44.3 -3.32 47.6 -4 51 C-6.64 51 -9.28 51 -12 51 C-10.62533659 41.31316481 -8.39830419 31.88437153 -6.05883789 22.39648438 C-5.43043116 19.84631357 -4.80947981 17.29440736 -4.18945312 14.7421875 C-3.79209659 13.11708232 -3.39432573 11.49207838 -2.99609375 9.8671875 C-2.81066513 9.10582489 -2.62523651 8.34446228 -2.43418884 7.56002808 C-1.11592386 2.23184772 -1.11592386 2.23184772 0 0 Z M4 18 C3.32844651 20.26949102 2.6626037 22.5403961 2 24.8125 C1.62875 26.07707031 1.2575 27.34164063 0.875 28.64453125 C-0.12616509 31.90587415 -0.12616509 31.90587415 0 35 C2.64 35 5.28 35 8 35 C7.48517081 29.147205 6.54642808 23.6702363 5 18 C4.67 18 4.34 18 4 18 Z " fill="#30D862" transform="translate(148,330)"/>
<path d="M0 0 C2.6875723 1.73627814 4.17556949 3.54069798 5.953125 6.20703125 C5.578125 8.89453125 5.578125 8.89453125 4.953125 11.20703125 C2.203125 11.51953125 2.203125 11.51953125 -1.046875 11.20703125 C-1.68625 10.36140625 -2.325625 9.51578125 -2.984375 8.64453125 C-3.665 7.84015625 -4.345625 7.03578125 -5.046875 6.20703125 C-8.71662018 6.11186585 -8.71662018 6.11186585 -12.046875 7.20703125 C-13.46691235 10.04710595 -13.36166896 12.06302653 -13.046875 15.20703125 C-11.39920148 17.40124859 -11.39920148 17.40124859 -9.046875 19.14453125 C-7.82097656 20.15966797 -7.82097656 20.15966797 -6.5703125 21.1953125 C-5.73757813 21.85917969 -4.90484375 22.52304687 -4.046875 23.20703125 C5.39640203 30.91417316 5.39640203 30.91417316 6.953125 36.20703125 C7.30293357 40.56892992 7.03224552 44.34343063 4.80859375 48.18359375 C1.08145102 52.1655032 -2.7144443 52.69580461 -8.046875 52.95703125 C-13.4332134 52.69917462 -17.06988698 52.1087101 -20.84765625 48.140625 C-22.96091587 44.733252 -23.61740751 41.15112047 -24.046875 37.20703125 C-21.406875 36.87703125 -18.766875 36.54703125 -16.046875 36.20703125 C-15.61375 37.32078125 -15.180625 38.43453125 -14.734375 39.58203125 C-13.34776381 43.38215459 -13.34776381 43.38215459 -10.046875 45.20703125 C-6.97022473 45.12481416 -6.97022473 45.12481416 -4.046875 44.20703125 C-1.81142181 41.47828123 -1.81142181 41.47828123 -2.109375 38.83203125 C-3.94921494 33.68047941 -8.39493146 30.91472963 -12.609375 27.70703125 C-16.56396366 24.68680464 -19.79198269 21.71681587 -22.046875 17.20703125 C-22.54947666 12.09038161 -22.88789572 7.67881751 -20.296875 3.14453125 C-14.73013804 -1.6490478 -6.93723346 -2.68751602 0 0 Z " fill="#37D167" transform="translate(367.046875,329.79296875)"/>
<path d="M0 0 C2.31 0 4.62 0 7 0 C7.495 1.98 7.495 1.98 8 4 C8.33 3.67 8.66 3.34 9 3 C11.33294775 2.95758277 13.66702567 2.95907063 16 3 C16.66 3 17.32 3 18 3 C25.66666667 3 33.33333333 3 41 3 C42.11667279 6.35001838 41.76286236 8.59254812 41 12 C38.37472811 12.05382106 35.75055287 12.09358313 33.125 12.125 C32.37863281 12.14175781 31.63226563 12.15851563 30.86328125 12.17578125 C28.90805539 12.1933959 26.95257979 12.10320189 25 12 C22.8614515 9.8614515 22.57344937 8.86724686 22 6 C21.67 7.98 21.34 9.96 21 12 C19.02090602 12.02686553 17.04171029 12.04633375 15.0625 12.0625 C13.96035156 12.07410156 12.85820312 12.08570313 11.72265625 12.09765625 C9 12 9 12 8 11 C7.34 11.66 6.68 12.32 6 13 C5.34 10.69 4.68 8.38 4 6 C3.34 6 2.68 6 2 6 C2 7.98 2 9.96 2 12 C-3.75885599 12.94701187 -7.41848263 12.90279001 -13 11 C-15.70465742 11.86454438 -15.70465742 11.86454438 -18 13 C-18.66 12.67 -19.32 12.34 -20 12 C-20 13.32 -20 14.64 -20 16 C-20.99 16 -21.98 16 -23 16 C-23.66 15.01 -24.32 14.02 -25 13 C-25.33 12.67 -25.66 12.34 -26 12 C-26.04092937 9.66702567 -26.04241723 7.33294775 -26 5 C-26.66 5 -27.32 5 -28 5 C-28 7.31 -28 9.62 -28 12 C-28.99 12 -29.98 12 -31 12 C-31.33 10.02 -31.66 8.04 -32 6 C-32.33 6 -32.66 6 -33 6 C-33.33 8.31 -33.66 10.62 -34 13 C-34.556875 12.814375 -35.11375 12.62875 -35.6875 12.4375 C-38.03287582 11.84408398 -38.03287582 11.84408398 -40.5 12.5 C-43.21280981 13.04256196 -44.37535256 12.69475962 -47 12 C-48.794375 12.0309375 -48.794375 12.0309375 -50.625 12.0625 C-54 12 -54 12 -56 10 C-55.625 6.375 -55.625 6.375 -55 3 C-37 3 -19 3 -1 3 C-0.67 2.01 -0.34 1.02 0 0 Z M-52 5 C-52.33 6.32 -52.66 7.64 -53 9 C-49.95086772 10.01111093 -49.95086772 10.01111093 -47 9 C-47 8.01 -47 7.02 -47 6 C-48.65 5.67 -50.3 5.34 -52 5 Z M-44 5 C-44 6.65 -44 8.3 -44 10 C-42.68 9.67 -41.36 9.34 -40 9 C-40.33 7.68 -40.66 6.36 -41 5 C-41.99 5 -42.98 5 -44 5 Z M-19 5 C-19.33 5.99 -19.66 6.98 -20 8 C-19.67 8.66 -19.34 9.32 -19 10 C-17.68 9.67 -16.36 9.34 -15 9 C-15.33 7.68 -15.66 6.36 -16 5 C-16.99 5 -17.98 5 -19 5 Z M-9 5 C-9.33 6.32 -9.66 7.64 -10 9 C-8.68 9.33 -7.36 9.66 -6 10 C-5.67 9.01 -5.34 8.02 -5 7 C-5.33 6.34 -5.66 5.68 -6 5 C-6.99 5 -7.98 5 -9 5 Z M12 5 C12 5.66 12 6.32 12 7 C12.99 6.67 13.98 6.34 15 6 C14.01 5.67 13.02 5.34 12 5 Z M27 5 C26.67 6.32 26.34 7.64 26 9 C27.32 9.33 28.64 9.66 30 10 C30.33 9.01 30.66 8.02 31 7 C30.67 6.34 30.34 5.68 30 5 C29.01 5 28.02 5 27 5 Z M33 8 C34.485 8.99 34.485 8.99 36 10 C36.99 9.67 37.98 9.34 39 9 C37.93354885 7.70366379 37.93354885 7.70366379 35.4375 7.9375 C34.633125 7.958125 33.82875 7.97875 33 8 Z M11 9 C15 10 15 10 15 10 Z " fill="#37D369" transform="translate(322,405)"/>
<path d="M0 0 C10.23 0 20.46 0 31 0 C31 1.98 31 3.96 31 6 C27.04 6 23.08 6 19 6 C19 20.85 19 35.7 19 51 C16.36 51 13.72 51 11 51 C11 36.15 11 21.3 11 6 C7.37 6 3.74 6 0 6 C0 4.02 0 2.04 0 0 Z " fill="#32D863" transform="translate(169,330)"/>
<path d="M0 0 C0.875 2.125 0.875 2.125 1 4 C1.66 3.67 2.32 3.34 3 3 C5.3329614 2.95833998 7.6670386 2.95833998 10 3 C10.66 3 11.32 3 12 3 C22.33333333 3 32.66666667 3 43 3 C44.67099977 2.68911632 46.33871537 2.35919668 48 2 C48.33 0.68 48.66 -0.64 49 -2 C49.99 -2 50.98 -2 52 -2 C52.495 0.97 52.495 0.97 53 4 C53.33 3.67 53.66 3.34 54 3 C56.33297433 2.95907063 58.66705225 2.95758277 61 3 C62.125 9.75 62.125 9.75 61 12 C58.49024821 12.74614242 56.68207301 13.18188613 54.125 12.5 C51.77425956 11.80557795 51.77425956 11.80557795 48.4375 12.5625 C45 13 45 13 42 11 C41.67 11.66 41.34 12.32 41 13 C40.01 12.67 39.02 12.34 38 12 C38 10.02 38 8.04 38 6 C37.34 6 36.68 6 36 6 C35.67 8.31 35.34 10.62 35 13 C33.20866022 13.05391993 31.41686101 13.09275571 29.625 13.125 C28.62726563 13.14820313 27.62953125 13.17140625 26.6015625 13.1953125 C24 13 24 13 22 11 C19.89179203 11.3185177 19.89179203 11.3185177 18 12 C18 9.69 18 7.38 18 5 C17.01 5 16.02 5 15 5 C15 7.31 15 9.62 15 12 C13.33333333 12 11.66666667 12 10 12 C9.236875 12.20625 8.47375 12.4125 7.6875 12.625 C4.50203521 13.06948346 2.85417219 12.38631221 0 11 C-0.33 11.33 -0.66 11.66 -1 12 C-3.67058851 12.14115161 -6.32432238 12.04247107 -9 12 C-9 7.71 -9 3.42 -9 -1 C-5.1851221 -2.27162597 -3.6068725 -1.64661571 0 0 Z M-6 1 C-6 3.97 -6 6.94 -6 10 C-4.68 9.67 -3.36 9.34 -2 9 C-1.3121764 6.64632287 -1.3121764 6.64632287 -1 4 C-1.66 3.01 -2.32 2.02 -3 1 C-3.99 1 -4.98 1 -6 1 Z M5 5 C4.67 6.32 4.34 7.64 4 9 C5.32 9.33 6.64 9.66 8 10 C8.33 8.68 8.66 7.36 9 6 C7.68 5.67 6.36 5.34 5 5 Z M25 5 C24.67 6.32 24.34 7.64 24 9 C25.32 9.33 26.64 9.66 28 10 C28.33 9.01 28.66 8.02 29 7 C28.67 6.34 28.34 5.68 28 5 C27.01 5 26.02 5 25 5 Z M45 5 C45 6.65 45 8.3 45 10 C46.32 9.67 47.64 9.34 49 9 C48.67 7.68 48.34 6.36 48 5 C47.01 5 46.02 5 45 5 Z M56 5 C55.67 6.32 55.34 7.64 55 9 C56.32 9.33 57.64 9.66 59 10 C58.67 8.35 58.34 6.7 58 5 C57.34 5 56.68 5 56 5 Z " fill="#35D466" transform="translate(47,405)"/>
<path d="M0 0 C2.64 0 5.28 0 8 0 C8 16.83 8 33.66 8 51 C5.36 51 2.72 51 0 51 C0 34.17 0 17.34 0 0 Z " fill="#2FD660" transform="translate(329,330)"/>
<path d="M0 0 C0.99 0 1.98 0 3 0 C3 0.99 3 1.98 3 3 C4.05960938 3 5.11921875 3 6.2109375 3 C13.140625 3 20.0703125 3 27 3 C27.91058531 6.07322544 28.08886184 8.80097361 28 12 C27.40832031 11.98839844 26.81664062 11.97679687 26.20703125 11.96484375 C21.16249073 11.89784595 21.16249073 11.89784595 16.1875 12.625 C13.47022338 13.09081885 12.29156595 12.44283782 10 11 C10 9.02 10 7.04 10 5 C9.34 5.33 8.68 5.66 8 6 C7.34227572 9.02934491 7.34227572 9.02934491 7 12 C4.69 12 2.38 12 0 12 C-0.33 10.35 -0.66 8.7 -1 7 C-1.33 8.65 -1.66 10.3 -2 12 C-8 12 -14 12 -20 12 C-20.63035156 12.01160156 -21.26070312 12.02320313 -21.91015625 12.03515625 C-23.9399742 12.06094341 -25.97027394 12.03221787 -28 12 C-29 11 -29 11 -29.09765625 9.15234375 C-29.06510417 7.1015625 -29.03255208 5.05078125 -29 3 C-28.01 3 -27.02 3 -26 3 C-26 5.31 -26 7.62 -26 10 C-25.01 10 -24.02 10 -23 10 C-23 7.69 -23 5.38 -23 3 C-22.360625 3.185625 -21.72125 3.37125 -21.0625 3.5625 C-20.381875 3.706875 -19.70125 3.85125 -19 4 C-18.67 3.67 -18.34 3.34 -18 3 C-15.66705225 2.95758277 -13.33297433 2.95907063 -11 3 C-7.59627516 3 -4.36528073 2.53417154 -1 2 C-0.67 1.34 -0.34 0.68 0 0 Z M-16 5 C-16 5.66 -16 6.32 -16 7 C-15.01 7 -14.02 7 -13 7 C-13 6.34 -13 5.68 -13 5 C-13.99 5 -14.98 5 -16 5 Z M13 5 C13 6.65 13 8.3 13 10 C14.32 9.67 15.64 9.34 17 9 C16.67 7.68 16.34 6.36 16 5 C15.01 5 14.02 5 13 5 Z M-10 6 C-10 6.99 -10 7.98 -10 9 C-7.03 9.495 -7.03 9.495 -4 10 C-4.33 9.34 -4.66 8.68 -5 8 C-6.32 8 -7.64 8 -9 8 C-9.33 7.34 -9.66 6.68 -10 6 Z M20 8 C20.66 8.66 21.32 9.32 22 10 C22.99 9.67 23.98 9.34 25 9 C23.35 8.67 21.7 8.34 20 8 Z M-16 9 C-12 10 -12 10 -12 10 Z " fill="#3DD16E" transform="translate(234,405)"/>
<path d="M0 0 C1.32 0 2.64 0 4 0 C5.62068966 45.75862069 5.62068966 45.75862069 4 49 C1.69 49 -0.62 49 -3 49 C-3.33773438 48.18015625 -3.67546875 47.3603125 -4.0234375 46.515625 C-4.46945312 45.43796875 -4.91546875 44.3603125 -5.375 43.25 C-6.03628906 41.64898437 -6.03628906 41.64898437 -6.7109375 40.015625 C-7.91129743 37.10129655 -7.91129743 37.10129655 -9.15625 34.78125 C-10.25867408 32.45391027 -10.14114216 30.5405588 -10 28 C-7 28 -7 28 -5.61328125 29.3125 C-4.40885417 30.875 -3.20442708 32.4375 -2 34 C-0.6948847 30.0744579 -0.9311546 26.1420427 -1 22.0625 C-1.07037208 14.64864127 -0.71914389 7.38406674 0 0 Z " fill="#22E059" transform="translate(265,331)"/>
<path d="M0 0 C3.96 0 7.92 0 12 0 C12.66 1.32 13.32 2.64 14 4 C11.36 4.33 8.72 4.66 6 5 C6 18.2 6 31.4 6 45 C8.64 44.67 11.28 44.34 14 44 C13.34 45.98 12.68 47.96 12 50 C10.18757948 50.02687279 8.37504767 50.04633715 6.5625 50.0625 C5.55316406 50.07410156 4.54382812 50.08570313 3.50390625 50.09765625 C1 50 1 50 0 49 C-0.09319449 47.4651703 -0.117458 45.92607918 -0.11352539 44.38842773 C-0.11344986 43.40748642 -0.11337433 42.4265451 -0.11329651 41.4158783 C-0.10813522 40.3492244 -0.10297394 39.2825705 -0.09765625 38.18359375 C-0.0962413 37.0974025 -0.09482635 36.01121124 -0.09336853 34.8921051 C-0.08775048 31.40720925 -0.07519492 27.92237658 -0.0625 24.4375 C-0.05748733 22.08138113 -0.05292402 19.72526126 -0.04882812 17.36914062 C-0.03777518 11.57940257 -0.02049846 5.78971201 0 0 Z " fill="#22DF5B" transform="translate(30,331)"/>
<path d="M0 0 C2.31 0 4.62 0 7 0 C7.67756882 1.55780332 8.34159457 3.12150096 9 4.6875 C9.37125 5.55761719 9.7425 6.42773438 10.125 7.32421875 C11.01870488 10.0572002 11.16449676 12.14700934 11 15 C10.01 15.495 10.01 15.495 9 16 C9 15.34 9 14.68 9 14 C7.35 13.67 5.7 13.34 4 13 C4.16371094 14.0209375 4.32742187 15.041875 4.49609375 16.09375 C5.30165644 22.53825154 5.10532403 29.0171007 5.0625 35.5 C5.05798828 36.799375 5.05347656 38.09875 5.04882812 39.4375 C5.0371092 42.62504825 5.02070219 45.81249955 5 49 C3.35 49 1.7 49 0 49 C0 32.83 0 16.66 0 0 Z " fill="#22E059" transform="translate(241,331)"/>
<path d="M0 0 C1.32 0 2.64 0 4 0 C4 0.66 4 1.32 4 2 C4.66 2.33 5.32 2.66 6 3 C5.01 3 4.02 3 3 3 C2.1730953 7.32790586 1.87145315 11.42054703 1.8671875 15.82421875 C1.86589844 17.09974609 1.86460938 18.37527344 1.86328125 19.68945312 C1.86714844 21.00880859 1.87101562 22.32816406 1.875 23.6875 C1.87143524 25.03190199 1.86753206 26.37630313 1.86328125 27.72070312 C1.86457031 28.99236328 1.86585937 30.26402344 1.8671875 31.57421875 C1.86887939 33.31578247 1.86887939 33.31578247 1.87060547 35.0925293 C1.87004372 38.0663586 1.87004372 38.0663586 3 41 C3.66 41.33 4.32 41.66 5 42 C5 42.99 5 43.98 5 45 C10.445 44.505 10.445 44.505 16 44 C16 46 16 46 14.4375 47.6875 C10.92380729 49.57948838 8.8254388 48.92338178 5 48 C1.77450263 46.60025586 -0.51632831 45.48367169 -3 43 C-4.19348645 35.61102656 -4.18328395 28.22083955 -4.1875 20.75 C-4.19974609 19.59242188 -4.21199219 18.43484375 -4.22460938 17.2421875 C-4.22654297 16.12585938 -4.22847656 15.00953125 -4.23046875 13.859375 C-4.23457764 12.85358398 -4.23868652 11.84779297 -4.24291992 10.81152344 C-3.86796223 6.47181205 -2.39829342 3.59744013 0 0 Z " fill="#22E059" transform="translate(68,332)"/>
<path d="M0 0 C12.33333333 0 24.66666667 0 37 0 C37 2.97 37 5.94 37 9 C33.14943042 9.9626424 31.67192165 10.06292469 28 9 C26 7 26 7 25.875 4.375 C25.91625 3.59125 25.9575 2.8075 26 2 C25.34 2 24.68 2 24 2 C23.67 4.64 23.34 7.28 23 10 C21.41705218 10.05437607 19.83355744 10.09296271 18.25 10.125 C17.36828125 10.14820313 16.4865625 10.17140625 15.578125 10.1953125 C12.8864142 9.99139502 11.30095026 9.36551721 9 8 C8.34 8.66 7.68 9.32 7 10 C5.68 10 4.36 10 3 10 C3 10.99 3 11.98 3 13 C2.01 13 1.02 13 0 13 C0 8.71 0 4.42 0 0 Z M3 2 C3 3.65 3 5.3 3 7 C4.32 6.67 5.64 6.34 7 6 C6.67 4.68 6.34 3.36 6 2 C5.01 2 4.02 2 3 2 Z M14 2 C13.67 3.65 13.34 5.3 13 7 C14.32 6.67 15.64 6.34 17 6 C16.67 4.68 16.34 3.36 16 2 C15.34 2 14.68 2 14 2 Z M30 2 C29.67 3.32 29.34 4.64 29 6 C30.32 6.33 31.64 6.66 33 7 C33.33 6.01 33.66 5.02 34 4 C33.67 3.34 33.34 2.68 33 2 C32.01 2 31.02 2 30 2 Z " fill="#35D369" transform="translate(154,408)"/>
<path d="M0 0 C0.66 0 1.32 0 2 0 C3.14229879 3.42689636 2.90861076 5.61102218 2.5625 9.1875 C2.46066406 10.27417969 2.35882813 11.36085938 2.25390625 12.48046875 C2.12822266 13.72763672 2.12822266 13.72763672 2 15 C5.3 14.67 8.6 14.34 12 14 C12 12.35 12 10.7 12 9 C12 7.68 12 6.36 12 5 C12.99 5.33 13.98 5.66 15 6 C16 12.75 16 12.75 16 15 C16.66 15.33 17.32 15.66 18 16 C18.37890625 17.890625 18.37890625 17.890625 18.5625 20.25 C18.85838629 23.56286973 19.26600642 26.74945701 20 30 C19.01 30.33 18.02 30.66 17 31 C14.57869669 28.57869669 14.47159496 27.19888623 13.875 23.875 C13.70742187 22.96492188 13.53984375 22.05484375 13.3671875 21.1171875 C13.24601562 20.41851562 13.12484375 19.71984375 13 19 C12.67 19.33 12.34 19.66 12 20 C9.13732433 20.07325168 6.299281 20.09238205 3.4375 20.0625 C2.63119141 20.05798828 1.82488281 20.05347656 0.99414062 20.04882812 C-1.00393756 20.03700518 -3.00197783 20.01906914 -5 20 C-5.19632274 12.59327856 -5.19632274 12.59327856 -3.625 8.875 C-3.21701172 7.88113281 -3.21701172 7.88113281 -2.80078125 6.8671875 C-2.53652344 6.25101562 -2.27226562 5.63484375 -2 5 C-1.4121875 3.515 -1.4121875 3.515 -0.8125 2 C-0.544375 1.34 -0.27625 0.68 0 0 Z " fill="#22DF59" transform="translate(146,350)"/>
<path d="M0 0 C1.65 0 3.3 0 5 0 C6.01847486 1.99065541 7.01517978 3.99248185 8 6 C8.680625 7.2065625 8.680625 7.2065625 9.375 8.4375 C10.34089348 12.39766325 8.95709014 14.5277433 7 18 C4.11928366 20.91731347 2.49603084 21.92182123 -1.59375 22.56640625 C-2.8828125 22.56511719 -4.171875 22.56382812 -5.5 22.5625 C-6.7890625 22.58441406 -8.078125 22.60632813 -9.40625 22.62890625 C-13.86267511 21.84903186 -15.28088583 20.55847105 -18 17 C-18.92578125 14.54296875 -18.92578125 14.54296875 -19.3125 12.1875 C-19.45300781 11.39730469 -19.59351563 10.60710937 -19.73828125 9.79296875 C-19.82464844 9.20128906 -19.91101563 8.60960937 -20 8 C-17.36 7.67 -14.72 7.34 -12 7 C-9 13.625 -9 13.625 -9 17 C-7.1128125 17.0309375 -7.1128125 17.0309375 -5.1875 17.0625 C-4.47980469 17.07410156 -3.77210938 17.08570313 -3.04296875 17.09765625 C-0.79694539 17.08263217 -0.79694539 17.08263217 2 16 C3.55177592 13.87552456 3.55177592 13.87552456 4 11 C2.74570339 7.40663508 2.74570339 7.40663508 1 4 C0.62691369 2.67723944 0.26953585 1.34767923 0 0 Z " fill="#22DF58" transform="translate(363,359)"/>
<path d="M0 0 C12 0 24 0 36 0 C36 2.97 36 5.94 36 9 C31.9048826 9.85711759 29.05560143 9.83191824 25 9 C22.27497035 9.37722015 22.27497035 9.37722015 20 10 C19.67 10.99 19.34 11.98 19 13 C18.01 13 17.02 13 16 13 C15.67 11.35 15.34 9.7 15 8 C14.01 8.66 13.02 9.32 12 10 C7.45945946 9.45945946 7.45945946 9.45945946 6 8 C5.95919217 6.00041636 5.95745644 3.99954746 6 2 C5.01 2.495 5.01 2.495 4 3 C3.26924352 5.3140622 2.59861742 7.64828869 2 10 C1.34 9.67 0.68 9.34 0 9 C0 6.03 0 3.06 0 0 Z M9 2 C9 3.65 9 5.3 9 7 C10.32 6.67 11.64 6.34 13 6 C12.67 4.68 12.34 3.36 12 2 C11.01 2 10.02 2 9 2 Z M20 2 C19.67 3.32 19.34 4.64 19 6 C20.32 6.33 21.64 6.66 23 7 C23.33 5.68 23.66 4.36 24 3 C22.68 2.67 21.36 2.34 20 2 Z M30 2 C29.67 3.32 29.34 4.64 29 6 C30.32 6.33 31.64 6.66 33 7 C33 5.35 33 3.7 33 2 C32.01 2 31.02 2 30 2 Z " fill="#38D06A" transform="translate(113,408)"/>
<path d="M0 0 C0.556875 0.226875 1.11375 0.45375 1.6875 0.6875 C1.0275 2.0075 0.3675 3.3275 -0.3125 4.6875 C-0.9725 4.6875 -1.6325 4.6875 -2.3125 4.6875 C-2.3125 4.0275 -2.3125 3.3675 -2.3125 2.6875 C-4.31113756 3.26694932 -4.31113756 3.26694932 -6.3125 4.6875 C-11.04100616 16.22044184 -7.99412388 31.4791294 -7.3125 43.6875 C-6.3225 44.0175 -5.3325 44.3475 -4.3125 44.6875 C-4.32821045 43.67324951 -4.3439209 42.65899902 -4.36010742 41.61401367 C-4.41440319 37.85139913 -4.44884851 34.08881922 -4.47729492 30.32592773 C-4.49238243 28.69728777 -4.51285506 27.06868844 -4.53881836 25.44018555 C-4.57520449 23.09934465 -4.5922262 20.75904081 -4.60546875 18.41796875 C-4.62095261 17.68974411 -4.63643646 16.96151947 -4.65238953 16.21122742 C-4.65408031 11.13365804 -4.65408031 11.13365804 -2.79418945 8.7043457 C-2.06075317 8.20100708 -2.06075317 8.20100708 -1.3125 7.6875 C-1.32821045 8.73204346 -1.3439209 9.77658691 -1.36010742 10.8527832 C-1.41439697 14.72721652 -1.4488463 18.60161619 -1.47729492 22.47631836 C-1.49238384 24.1534592 -1.51285748 25.83056057 -1.53881836 27.50756836 C-1.57519811 29.91790504 -1.59222486 32.32772019 -1.60546875 34.73828125 C-1.62095261 35.48837967 -1.63643646 36.23847809 -1.65238953 37.01130676 C-1.71800115 41.09817562 -1.71800115 41.09817562 0.20581055 44.55932617 C0.93924683 45.11777222 0.93924683 45.11777222 1.6875 45.6875 C1.6875 46.3475 1.6875 47.0075 1.6875 47.6875 C4.3275 47.3575 6.9675 47.0275 9.6875 46.6875 C9.3575 47.3475 9.0275 48.0075 8.6875 48.6875 C6.62484178 49.0786938 4.59306733 49.19424519 2.5 49.34375 C1.901875 49.4571875 1.30375 49.570625 0.6875 49.6875 C0.3575 50.3475 0.0275 51.0075 -0.3125 51.6875 C2.9875 51.6875 6.2875 51.6875 9.6875 51.6875 C9.6875 51.0275 9.6875 50.3675 9.6875 49.6875 C11.3375 49.6875 12.9875 49.6875 14.6875 49.6875 C10.40399113 53.62623864 6.40385075 53.1742911 0.83203125 53.04296875 C-3.4662323 52.55707809 -5.2315008 51.68522895 -8.3125 48.6875 C-10.93256239 44.91395103 -10.61849095 40.79745029 -10.61328125 36.37890625 C-10.61756638 35.57517075 -10.6218515 34.77143524 -10.62626648 33.94334412 C-10.63199992 32.24633728 -10.6325173 30.54930588 -10.62817383 28.85229492 C-10.62501516 26.26242956 -10.64847969 23.67370849 -10.67382812 21.08398438 C-10.67610143 19.4322931 -10.67680447 17.78059877 -10.67578125 16.12890625 C-10.684991 15.35793106 -10.69420074 14.58695587 -10.70368958 13.7926178 C-10.66468278 9.23689526 -10.13448975 6.30598844 -7.3125 2.6875 C-3.24813218 -0.43893678 -3.24813218 -0.43893678 0 0 Z " fill="#2ED863" transform="translate(213.3125,329.3125)"/>
<path d="M0 0 C5.95703125 0.390625 5.95703125 0.390625 8 1 C8.99 2.32 9.98 3.64 11 5 C6.38 5.33 1.76 5.66 -3 6 C-4.86503093 10.66257733 -5.33564755 14.05232988 -5.4140625 18.92578125 C-5.43342865 19.67337204 -5.4527948 20.42096283 -5.4727478 21.19120789 C-5.53223918 23.56485806 -5.57880592 25.93855754 -5.625 28.3125 C-5.66320789 29.92775482 -5.70226125 31.54298987 -5.7421875 33.15820312 C-5.8379153 37.1053071 -5.92205767 41.05250639 -6 45 C-7.98 45.495 -7.98 45.495 -10 46 C-10.37118371 38.66813456 -10.70241465 31.33521783 -11 24 C-11.03158203 23.27232422 -11.06316406 22.54464844 -11.09570312 21.79492188 C-11.58232527 9.62936828 -11.58232527 9.62936828 -8 4 C-5.875 3 -5.875 3 -4 3 C-3.67 3.33 -3.34 3.66 -3 4 C-2.01 2.68 -1.02 1.36 0 0 Z " fill="#22E058" transform="translate(215,329)"/>
<path d="M0 0 C18 0 18 0 24 4 C24.33 4.66 24.66 5.32 25 6 C23.8553125 5.4740625 23.8553125 5.4740625 22.6875 4.9375 C19.95240621 3.67639116 19.95240621 3.67639116 17 5 C17.98468262 6.0058313 17.98468262 6.0058313 18.98925781 7.03198242 C21.56216355 10.82979872 21.38924039 12.94172176 21.171875 17.48828125 C21.13009125 18.5430793 21.13009125 18.5430793 21.08746338 19.6191864 C20.9945448 21.8516686 20.87272907 24.08147801 20.75 26.3125 C20.68167769 27.83129523 20.61525089 29.35017698 20.55078125 30.86914062 C20.38912097 34.58068167 20.20153025 38.29038574 20 42 C19.34 42 18.68 42 18 42 C18.0314209 40.62279785 18.0314209 40.62279785 18.06347656 39.21777344 C18.13174583 35.80344572 18.18184385 32.38984557 18.21972656 28.97509766 C18.23981301 27.4987441 18.26708801 26.02246981 18.30175781 24.54638672 C18.35041184 22.42135038 18.37299673 20.29736766 18.390625 18.171875 C18.41157227 16.8940918 18.43251953 15.61630859 18.45410156 14.29980469 C18.24980372 10.97775519 18.24980372 10.97775519 16.35058594 8.61425781 C13.63308236 6.50421478 13.63308236 6.50421478 8 6 C8 18.87 8 31.74 8 45 C8.99 45.33 9.98 45.66 11 46 C9.68 46 8.36 46 7 46 C5.36054037 42.72108075 5.87969822 39.09386466 5.90234375 35.4921875 C5.9037587 34.65156769 5.90517365 33.81094788 5.90663147 32.94485474 C5.91223763 30.25486725 5.92479114 27.56496241 5.9375 24.875 C5.94251421 23.05338662 5.94707725 21.23177193 5.95117188 19.41015625 C5.96220906 14.94007223 5.9794778 10.47005014 6 6 C7.4540625 5.566875 7.4540625 5.566875 8.9375 5.125 C12.10664203 4.35785318 12.10664203 4.35785318 13 2 C9.04 1.67 5.08 1.34 1 1 C1.33 17.5 1.66 34 2 51 C1.34 51 0.68 51 0 51 C0 34.17 0 17.34 0 0 Z " fill="#3BD269" transform="translate(29,330)"/>
<path d="M0 0 C4.71526997 -0.471527 8.65691373 -0.80959258 12.5625 2.1875 C15 5 15 5 15.375 7.6875 C15.25125 8.450625 15.1275 9.21375 15 10 C15 10.66 15 11.32 15 12 C15 22.33333333 15 32.66666667 15 43 C13.02 43.495 13.02 43.495 11 44 C9.54096982 36.21850571 9.98110906 28.40004359 10.12695312 20.515625 C10.18490454 14.59776292 10.06555965 9.57296094 8 4 C5.36 3.34 2.72 2.68 0 2 C0 1.34 0 0.68 0 0 Z " fill="#22DF57" transform="translate(76,331)"/>
<path d="M0 0 C0.99 0.33 1.98 0.66 3 1 C3.83706259 6.0716145 4.13517405 10.97764139 4.09765625 16.12109375 C4.0962413 16.86585464 4.09482635 17.61061554 4.09336853 18.37794495 C4.08781989 20.73117273 4.07527733 23.0843015 4.0625 25.4375 C4.05747835 27.04361841 4.05291661 28.64973832 4.04882812 30.25585938 C4.03786735 34.17061043 4.02063884 38.08528849 4 42 C2.0625 42.5625 2.0625 42.5625 0 43 C-1.92257175 41.07742825 -1.12908424 38.21914892 -1.13894653 35.66125488 C-1.1369223 34.77272827 -1.13489807 33.88420166 -1.1328125 32.96875 C-1.13376923 32.06249878 -1.13472595 31.15624756 -1.13571167 30.22253418 C-1.13639353 28.30248953 -1.13453882 26.38244259 -1.13037109 24.46240234 C-1.12502292 21.51264296 -1.13031588 18.56303586 -1.13671875 15.61328125 C-1.13605797 13.75260383 -1.13477681 11.8919265 -1.1328125 10.03125 C-1.13483673 9.14272339 -1.13686096 8.25419678 -1.13894653 7.33874512 C-1.11494988 1.11494988 -1.11494988 1.11494988 0 0 Z " fill="#22DF58" transform="translate(183,338)"/>
<path d="M0 0 C2.6875 2.1875 2.6875 2.1875 4.6875 5.1875 C4.3125 7.875 4.3125 7.875 3.6875 10.1875 C0.9375 10.5 0.9375 10.5 -2.3125 10.1875 C-3.2096875 8.9809375 -3.2096875 8.9809375 -4.125 7.75 C-6.65890232 4.78171442 -7.33896936 4.75839005 -11.0625 4.375 C-12.47802629 4.29052504 -13.89484686 4.22082091 -15.3125 4.1875 C-15.60125 5.074375 -15.89 5.96125 -16.1875 6.875 C-18.94886364 15.00568182 -18.94886364 15.00568182 -21.3125 16.1875 C-22.47892103 11.91062288 -22.40747524 8.48918844 -21.3125 4.1875 C-15.6915124 -1.75468689 -7.3254461 -4.00826296 0 0 Z " fill="#21E058" transform="translate(368.3125,330.8125)"/>
<path d="M0 0 C2.64 0 5.28 0 8 0 C8.01981934 1.1552417 8.03963867 2.3104834 8.06005859 3.50073242 C8.13626941 7.79668561 8.22496289 12.09230692 8.31738281 16.38793945 C8.35560866 18.24529456 8.39047263 20.10272208 8.421875 21.96020508 C8.46766461 24.63388912 8.52563579 27.30707742 8.5859375 29.98046875 C8.59748871 30.80773972 8.60903992 31.63501068 8.62094116 32.48735046 C8.72958591 36.75464411 9.04126423 40.10658311 11 44 C15.48133574 44.72256829 15.48133574 44.72256829 20 45 C20 45.66 20 46.32 20 47 C17.36 47.33 14.72 47.66 12 48 C12 47.34 12 46.68 12 46 C11.071875 45.9071875 11.071875 45.9071875 10.125 45.8125 C8 45 8 45 6.86572266 43.01293945 C5.6902143 38.9218654 5.85891749 35.20773748 6.0234375 30.98046875 C6.04846344 30.12189774 6.07348938 29.26332672 6.09927368 28.3787384 C6.18116774 25.64790557 6.27787461 22.91782934 6.375 20.1875 C6.43327088 18.33141069 6.49057347 16.47529071 6.546875 14.61914062 C6.6867008 10.07899524 6.83980946 5.53947063 7 1 C5.35 1 3.7 1 2 1 C2.04417736 6.89044095 2.11403726 12.77981252 2.20751953 18.66967773 C2.23571261 20.67252076 2.25693542 22.6754747 2.27099609 24.6784668 C2.29244854 27.56096107 2.33911056 30.44212409 2.390625 33.32421875 C2.39246796 34.66355721 2.39246796 34.66355721 2.39434814 36.029953 C2.49215675 40.19898244 2.64833618 42.44077554 4.91308594 46.04223633 C6.84523539 48.04169676 6.84523539 48.04169676 9 49 C9 49.66 9 50.32 9 51 C5.09395463 49.73317448 3.09833197 48.56716435 1 45 C0.14502236 42.20132644 -0.12253454 39.70118964 -0.11352539 36.78222656 C-0.11344986 35.96167786 -0.11337433 35.14112915 -0.11329651 34.29571533 C-0.10813522 33.41953552 -0.10297394 32.54335571 -0.09765625 31.640625 C-0.0962413 30.73624695 -0.09482635 29.8318689 -0.09336853 28.90008545 C-0.08777911 26.01668973 -0.07522853 23.13337218 -0.0625 20.25 C-0.05748363 18.29296987 -0.05292096 16.33593853 -0.04882812 14.37890625 C-0.03781313 9.58590747 -0.02055574 4.79296698 0 0 Z " fill="#48CA71" transform="translate(291,330)"/>
<path d="M0 0 C7.66666667 0 15.33333333 0 23 0 C24.11667279 3.35001838 23.76286236 5.59254812 23 9 C20.37472811 9.05382106 17.75055287 9.09358313 15.125 9.125 C14.37863281 9.14175781 13.63226563 9.15851563 12.86328125 9.17578125 C10.90805539 9.1933959 8.95257979 9.10320189 7 9 C4.8614515 6.8614515 4.57344937 5.86724686 4 3 C3.67 4.98 3.34 6.96 3 9 C-0.3 9 -3.6 9 -7 9 C-7 8.34 -7 7.68 -7 7 C-1.375 5.875 -1.375 5.875 2 7 C2 5.02 2 3.04 2 1 C1.34 0.67 0.68 0.34 0 0 Z M9 2 C8.67 3.32 8.34 4.64 8 6 C9.32 6.33 10.64 6.66 12 7 C12.33 6.01 12.66 5.02 13 4 C12.67 3.34 12.34 2.68 12 2 C11.01 2 10.02 2 9 2 Z M15 5 C16.485 5.99 16.485 5.99 18 7 C18.99 6.67 19.98 6.34 21 6 C19.93354885 4.70366379 19.93354885 4.70366379 17.4375 4.9375 C16.633125 4.958125 15.82875 4.97875 15 5 Z " fill="#40CC72" transform="translate(340,408)"/>
<path d="M0 0 C0.33 0 0.66 0 1 0 C1.07407906 4.23580253 1.12856696 8.47126341 1.16479492 12.70751953 C1.17989483 14.14899258 1.20037658 15.59041959 1.22631836 17.03173828 C1.2626513 19.10200343 1.27971329 21.17166207 1.29296875 23.2421875 C1.3086792 24.4885498 1.32438965 25.73491211 1.34057617 27.01904297 C1.22818604 28.00275879 1.1157959 28.98647461 1 30 C0.01 30.66 -0.98 31.32 -2 32 C-4 30 -4 30 -4.24291992 27.6015625 C-4.23881104 26.61929687 -4.23470215 25.63703125 -4.23046875 24.625 C-4.22853516 23.55765625 -4.22660156 22.4903125 -4.22460938 21.390625 C-4.21236328 20.27171875 -4.20011719 19.1528125 -4.1875 18 C-4.18685547 16.88109375 -4.18621094 15.7621875 -4.18554688 14.609375 C-4.14028159 6.28056319 -4.14028159 6.28056319 -3 4 C-2.34 4 -1.68 4 -1 4 C-0.67 2.68 -0.34 1.36 0 0 Z " fill="#22DF5A" transform="translate(105,348)"/>
<path d="M0 0 C4.47690044 3.45886555 8.28351019 6.4214081 10 12 C10.35617299 16.3595574 10.07763073 20.13897218 7.85546875 23.9765625 C4.92263544 27.10986796 2.71682164 27.92800481 -1.578125 28.359375 C-5.07420012 28.37352915 -8.51447184 28.26105204 -12 28 C-12 27.67 -12 27.34 -12 27 C-11.11957031 26.97421875 -10.23914063 26.9484375 -9.33203125 26.921875 C-7.58986328 26.83679688 -7.58986328 26.83679688 -5.8125 26.75 C-4.66394531 26.70359375 -3.51539063 26.6571875 -2.33203125 26.609375 C1.5508257 25.89926283 3.23918409 24.78078565 6 22 C7.93834781 17.05283835 7.93834781 17.05283835 7 12 C6.01 11.34 5.02 10.68 4 10 C4 8.68 4 7.36 4 6 C2.68 6 1.36 6 0 6 C0.28875 6.70125 0.5775 7.4025 0.875 8.125 C1.24625 9.07375 1.6175 10.0225 2 11 C2.433125 11.99 2.86625 12.98 3.3125 14 C4 17 4 17 3.1875 19.8125 C0.28107226 22.71892774 -1.94911398 22.75313505 -5.94140625 23.0546875 C-8 23 -8 23 -10 22 C-9.67 21.34 -9.34 20.68 -9 20 C-8.0925 20.2475 -7.185 20.495 -6.25 20.75 C-2.96521177 21.33879744 -2.96521177 21.33879744 -0.5625 19.375 C1.21120997 17.13415981 1.21120997 17.13415981 1.0625 14.5625 C-0.31290079 11.24535692 -2.38443161 9.41940076 -5 7 C-5.33 6.34 -5.66 5.68 -6 5 C-4.68 5.33 -3.36 5.66 -2 6 C-1.34 4.02 -0.68 2.04 0 0 Z " fill="#38D268" transform="translate(364,354)"/>
<path d="M0 0 C2.64 0 5.28 0 8 0 C8 16.83 8 33.66 8 51 C5.69 51 3.38 51 1 51 C2.32 50.34 3.64 49.68 5 49 C5.33 33.16 5.66 17.32 6 1 C4.68 1 3.36 1 2 1 C2.04125 1.94875 2.0825 2.8975 2.125 3.875 C2 7 2 7 0 9 C0 6.03 0 3.06 0 0 Z " fill="#3DD06B" transform="translate(123,330)"/>
<path d="M0 0 C1.2065625 0.0309375 1.2065625 0.0309375 2.4375 0.0625 C5.0332524 6.3159035 6.3934635 12.38066637 7.4375 19.0625 C6.7775 19.0625 6.1175 19.0625 5.4375 19.0625 C5.4375 19.7225 5.4375 20.3825 5.4375 21.0625 C4.4475 21.3925 3.4575 21.7225 2.4375 22.0625 C1.43640485 18.75179162 1.33393866 15.76165231 1.375 12.3125 C1.38402344 11.32765625 1.39304688 10.3428125 1.40234375 9.328125 C1.41394531 8.58046875 1.42554688 7.8328125 1.4375 7.0625 C0.7775 7.0625 0.1175 7.0625 -0.5625 7.0625 C-0.8925 8.3825 -1.2225 9.7025 -1.5625 11.0625 C-2.5525 10.7325 -3.5425 10.4025 -4.5625 10.0625 C-4.42200482 8.58281676 -4.27495174 7.10375484 -4.125 5.625 C-4.04378906 4.80128906 -3.96257812 3.97757812 -3.87890625 3.12890625 C-3.4093501 0.06229881 -3.15462671 0.07694211 0 0 Z " fill="#21E058" transform="translate(152.5625,330.9375)"/>
<path d="M0 0 C8.25 0 16.5 0 25 0 C25 2.97 25 5.94 25 9 C21.14943042 9.9626424 19.67192165 10.06292469 16 9 C14 7 14 7 13.875 4.375 C13.91625 3.59125 13.9575 2.8075 14 2 C13.34 2 12.68 2 12 2 C11.67 4.31 11.34 6.62 11 9 C10.71125 8.401875 10.4225 7.80375 10.125 7.1875 C8.95257974 4.80672208 8.95257974 4.80672208 7 2 C3.41642759 1.74984127 3.41642759 1.74984127 0 2 C0 1.34 0 0.68 0 0 Z M18 2 C17.67 3.32 17.34 4.64 17 6 C18.32 6.33 19.64 6.66 21 7 C21.33 6.01 21.66 5.02 22 4 C21.67 3.34 21.34 2.68 21 2 C20.01 2 19.02 2 18 2 Z " fill="#3DD16F" transform="translate(166,408)"/>
<path d="M0 0 C3 6.625 3 6.625 3 10 C3.66 10.33 4.32 10.66 5 11 C4.34 11.66 3.68 12.32 3 13 C3.33 13.66 3.66 14.32 4 15 C0.48370837 15.50232738 -0.76045447 15.17269561 -3.6875 13.0625 C-6.61204104 9.18945917 -7.30948535 5.73054066 -8 1 C-5.23735711 0.40267181 -2.83967231 0 0 0 Z " fill="#2ED862" transform="translate(351,366)"/>
<path d="M0 0 C2.79163712 2.40768703 3.89717557 4.76146616 5.1875 8.1875 C5.53167969 9.08855469 5.87585938 9.98960937 6.23046875 10.91796875 C6.48441406 11.60503906 6.73835938 12.29210937 7 13 C7.66 12.67 8.32 12.34 9 12 C9.65555119 9.47266765 9.65555119 9.47266765 10 7 C12.66026601 9.82653264 13.93491949 11.32316275 14.3125 15.25 C14 18 14 18 13 19 C12.92820036 20.51928038 12.91607993 22.04167482 12.9375 23.5625 C12.94652344 24.38878906 12.95554687 25.21507812 12.96484375 26.06640625 C12.97644531 26.70449219 12.98804687 27.34257812 13 28 C10 27 10 27 8.74145508 24.62329102 C8.33822021 23.59389404 7.93498535 22.56449707 7.51953125 21.50390625 C7.07802734 20.38822266 6.63652344 19.27253906 6.18164062 18.12304688 C5.72982422 16.94806641 5.27800781 15.77308594 4.8125 14.5625 C4.34908203 13.39138672 3.88566406 12.22027344 3.40820312 11.01367188 C0 2.31497377 0 2.31497377 0 0 Z " fill="#2BE05F" transform="translate(110,353)"/>
<path d="M0 0 C0.33 0 0.66 0 1 0 C0.99214478 1.58868896 0.99214478 1.58868896 0.98413086 3.20947266 C0.96596594 7.15672961 0.95452611 11.1039829 0.94506836 15.05126953 C0.94005436 16.75635399 0.9332415 18.46143418 0.92456055 20.16650391 C0.91236615 22.62403419 0.90674225 25.08150738 0.90234375 27.5390625 C0.89718246 28.29555084 0.89202118 29.05203918 0.88670349 29.83145142 C0.88626573 34.00611208 1.25137995 37.89905714 2 42 C2 44.33333333 2 46.66666667 2 49 C2.33 49.66 2.66 50.32 3 51 C3.06996014 52.70702735 3.08440154 54.41668003 3.0625 56.125 C3.05347656 57.03507812 3.04445313 57.94515625 3.03515625 58.8828125 C3.02355469 59.58148438 3.01195312 60.28015625 3 61 C-5.98399692 44.79873359 -3.29899552 17.52591371 0 0 Z " fill="#36CE66" transform="translate(60,150)"/>
<path d="M0 0 C0 0.66 0 1.32 0 2 C-4.58923625 3.80916015 -9.19545382 5.55348948 -13.83789062 7.22167969 C-15.71457099 7.89725071 -17.58450681 8.59150141 -19.453125 9.2890625 C-31.49427147 13.1814331 -45.47565745 13.47461835 -58 12 C-58.66 11.34 -59.32 10.68 -60 10 C-59.13761719 10.02320313 -58.27523437 10.04640625 -57.38671875 10.0703125 C-39.37686639 10.33656164 -21.80027854 8.65960381 -5.140625 1.33984375 C-2 0 -2 0 0 0 Z " fill="#3CC966" transform="translate(246,267)"/>
<path d="M0 0 C1.49625783 2.99251566 1.06015528 6.03390436 0.9921875 9.30859375 C0.97467106 10.79231087 0.95776279 12.27603527 0.94140625 13.75976562 C0.91042868 16.10152206 0.87489293 18.44291696 0.82861328 20.78442383 C0.78629911 23.04252665 0.76284136 25.30020298 0.7421875 27.55859375 C0.72356659 28.2586705 0.70494568 28.95874725 0.6857605 29.68003845 C0.62399031 33.57180899 0.62399031 33.57180899 2.51611328 36.84008789 C3.0057959 37.22285889 3.49547852 37.60562988 4 38 C4 38.66 4 39.32 4 40 C6.64 39.67 9.28 39.34 12 39 C11.67 39.66 11.34 40.32 11 41 C8.35139573 41.59355614 5.70802678 41.74209269 3 42 C2.505 40.515 2.505 40.515 2 39 C0.68 39 -0.64 39 -2 39 C-2.04942365 33.927993 -2.08573068 28.85612606 -2.10986328 23.78393555 C-2.11992326 22.05832477 -2.13357276 20.33273105 -2.15087891 18.60717773 C-2.17512754 16.1273986 -2.18648301 13.64784477 -2.1953125 11.16796875 C-2.20563507 10.39599655 -2.21595764 9.62402435 -2.22659302 8.82865906 C-2.22739422 5.00718524 -2.17242595 3.25863893 0 0 Z " fill="#3FCF69" transform="translate(211,337)"/>
<path d="M0 0 C2.64 0 5.28 0 8 0 C8 0.33 8 0.66 8 1 C6.02 1 4.04 1 2 1 C2.04600342 2.22630127 2.09200684 3.45260254 2.1394043 4.71606445 C2.3058344 9.2610254 2.45201124 13.80645026 2.59204102 18.35229492 C2.65551315 20.32058028 2.7244949 22.28869592 2.79907227 24.2565918 C2.90525272 27.08355743 2.99167449 29.91053911 3.07421875 32.73828125 C3.11157639 33.61962234 3.14893402 34.50096344 3.18742371 35.40901184 C3.20767105 36.22963608 3.2279184 37.05026031 3.2487793 37.89575195 C3.27320602 38.61745071 3.29763275 39.33914948 3.32279968 40.0827179 C2.90733582 42.55038276 1.88307753 43.42259714 0 45 C-0.66 44.67 -1.32 44.34 -2 44 C-1.67 43.34 -1.34 42.68 -1 42 C-0.88295036 40.64247704 -0.82322811 39.27974112 -0.79467773 37.91748047 C-0.77473251 37.07675995 -0.75478729 36.23603943 -0.73423767 35.36984253 C-0.71752518 34.46146637 -0.70081268 33.55309021 -0.68359375 32.6171875 C-0.66281265 31.68778351 -0.64203156 30.75837952 -0.62062073 29.80081177 C-0.55512354 26.8256179 -0.49623948 23.85033423 -0.4375 20.875 C-0.39431494 18.86066772 -0.35070066 16.84634459 -0.30664062 14.83203125 C-0.19944197 9.88811337 -0.09817499 4.94410497 0 0 Z " fill="#42CB6C" transform="translate(313,330)"/>
<path d="M0 0 C5.2953712 -0.50432107 7.86704506 0.71242221 12 4 C14 7 14 7 13.625 9.6875 C13.41875 10.450625 13.2125 11.21375 13 12 C10.25 12.3125 10.25 12.3125 7 12 C5.62131719 10.37064759 4.28725907 8.70250393 3 7 C0.36539052 6.12056596 0.36539052 6.12056596 -2 6 C-2 5.67 -2 5.34 -2 5 C0.31 4.34 2.62 3.68 5 3 C2.525 2.01 2.525 2.01 0 1 C0 0.67 0 0.34 0 0 Z " fill="#2BDA62" transform="translate(359,329)"/>
<path d="M0 0 C7.33333333 0 14.66666667 0 22 0 C21.01 0.495 21.01 0.495 20 1 C20 2.65 20 4.3 20 6 C19.34 6 18.68 6 18 6 C17.67 4.68 17.34 3.36 17 2 C16.01 2.33 15.02 2.66 14 3 C14 3.99 14 4.98 14 6 C14.99 6.66 15.98 7.32 17 8 C12.3008219 9.01603851 8.6991781 9.01603851 4 8 C4.99 7.34 5.98 6.68 7 6 C7 5.01 7 4.02 7 3 C4.69 2.34 2.38 1.68 0 1 C0 0.67 0 0.34 0 0 Z " fill="#3DD26E" transform="translate(299,408)"/>
<path d="M0 0 C1.14239136 0.0165564 1.14239136 0.0165564 2.30786133 0.03344727 C3.30015747 0.04782837 3.30015747 0.04782837 4.3125 0.0625 C7.67586025 8.08551559 7.64960526 15.19470667 7.3125 23.8125 C7.29316406 25.11316406 7.27382812 26.41382813 7.25390625 27.75390625 C7.21136719 29.00558594 7.16882813 30.25726563 7.125 31.546875 C7.09019531 32.67834961 7.05539063 33.80982422 7.01953125 34.97558594 C6.10324627 38.97610639 4.48947851 40.53610128 1.3125 43.0625 C-2 43.375 -2 43.375 -4.6875 43.0625 C-4.6875 42.7325 -4.6875 42.4025 -4.6875 42.0625 C-3.57375 41.85625 -2.46 41.65 -1.3125 41.4375 C2.41765191 40.48062968 2.41765191 40.48062968 3.5234375 37.7578125 C4.67780712 32.35170527 4.60073152 27.074211 4.5625 21.5625 C4.57023438 20.44746094 4.57796875 19.33242188 4.5859375 18.18359375 C4.5730577 12.78051724 4.54463571 8.09366303 2.3125 3.0625 C-1.35055234 2.31323929 -4.11105152 1.8244986 -7.6875 3.0625 C-7.6875 2.4025 -7.6875 1.7425 -7.6875 1.0625 C-4.80538698 0.10179566 -2.98899956 -0.04331883 0 0 Z " fill="#32D566" transform="translate(219.6875,333.9375)"/>
<path d="M0 0 C1.32 0 2.64 0 4 0 C5.03159626 3.09478879 4.97482862 4.52631393 4.5625 7.6875 C4.46066406 8.49574219 4.35882813 9.30398438 4.25390625 10.13671875 C4.17011719 10.75160156 4.08632812 11.36648438 4 12 C3.01 12 2.02 12 1 12 C0.34 17.61 -0.32 23.22 -1 29 C-1.33 29 -1.66 29 -2 29 C-2.05874776 25.66674246 -2.09384467 22.33362062 -2.125 19 C-2.14175781 18.06542969 -2.15851563 17.13085938 -2.17578125 16.16796875 C-2.21606145 10.40790037 -1.65416655 5.5225718 0 0 Z " fill="#29DD5F" transform="translate(125,331)"/>
<path d="M0 0 C2.30453506 1.22908536 3.72306254 2.31069962 4.7109375 4.76953125 C6.15419633 10.23927307 6.601842 14.93116814 5 20.4375 C3.96414181 24.12774481 3.8444296 27.18852524 4 31 C0.04 31.495 0.04 31.495 -4 32 C-3.01 31.67 -2.02 31.34 -1 31 C-1 28.36 -1 25.72 -1 23 C-0.34 23 0.32 23 1 23 C1.309375 21.72125 1.61875 20.4425 1.9375 19.125 C2.47605244 16.89898325 2.9737 15.05260001 4 13 C3.75389932 10.90934181 3.75389932 10.90934181 3.1875 8.625 C3.01605469 7.85414062 2.84460938 7.08328125 2.66796875 6.2890625 C2.00486365 4.01666723 1.12426987 2.07776457 0 0 Z " fill="#2AD861" transform="translate(231,114)"/>
<path d="M0 0 C1.98 0 3.96 0 6 0 C6.01981934 1.1552417 6.03963867 2.3104834 6.06005859 3.50073242 C6.13626941 7.79668561 6.22496289 12.09230692 6.31738281 16.38793945 C6.35560866 18.24529456 6.39047263 20.10272208 6.421875 21.96020508 C6.46766461 24.63388912 6.52563579 27.30707742 6.5859375 29.98046875 C6.59748871 30.80773972 6.60903992 31.63501068 6.62094116 32.48735046 C6.72958591 36.75464411 7.04126423 40.10658311 9 44 C13.48133574 44.72256829 13.48133574 44.72256829 18 45 C18 45.66 18 46.32 18 47 C15.36 47.33 12.72 47.66 10 48 C10 47.34 10 46.68 10 46 C9.071875 45.9071875 9.071875 45.9071875 8.125 45.8125 C6 45 6 45 4.86572266 43.01293945 C3.6902143 38.9218654 3.85891749 35.20773748 4.0234375 30.98046875 C4.04846344 30.12189774 4.07348938 29.26332672 4.09927368 28.3787384 C4.18116774 25.64790557 4.27787461 22.91782934 4.375 20.1875 C4.43327088 18.33141069 4.49057347 16.47529071 4.546875 14.61914062 C4.6867008 10.07899524 4.83980946 5.53947063 5 1 C3.35 1 1.7 1 0 1 C0 0.67 0 0.34 0 0 Z " fill="#37D967" transform="translate(293,330)"/>
<path d="M0 0 C0.33 0.33 0.66 0.66 1 1 C3.69235776 1.23678716 6.36498156 1.42198025 9.0625 1.5625 C10.20041992 1.62727539 10.20041992 1.62727539 11.36132812 1.69335938 C13.24065438 1.79973633 15.12030244 1.90039934 17 2 C17 2.33 17 2.66 17 3 C16.25234375 3.06058594 15.5046875 3.12117188 14.734375 3.18359375 C13.74953125 3.26738281 12.7646875 3.35117188 11.75 3.4375 C10.28820312 3.55931641 10.28820312 3.55931641 8.796875 3.68359375 C6.08433482 3.91520239 6.08433482 3.91520239 3.86328125 4.59765625 C0.76592028 5.26647843 -2.01023635 3.86974943 -5 3 C-5.99 3.33 -6.98 3.66 -8 4 C-9.73324119 3.91538508 -11.46392812 3.76395645 -13.1875 3.5625 C-14.08855469 3.46066406 -14.98960937 3.35882813 -15.91796875 3.25390625 C-16.60503906 3.17011719 -17.29210937 3.08632812 -18 3 C-17.34 2.34 -16.68 1.68 -16 1 C-14 1 -12 1 -10 1 C-9.34 0.649375 -8.68 0.29875 -8 -0.0625 C-5.10360137 -1.42018686 -3.03558724 -0.74203244 0 0 Z " fill="#33D265" transform="translate(200,97)"/>
<path d="M0 0 C5.53840384 0.48085367 9.13523055 2.55244799 13.6875 5.5 C14.38721924 5.94633789 15.08693848 6.39267578 15.80786133 6.85253906 C24.08787121 12.22510079 32.06078086 18.01277426 38 26 C34.56247993 24.4722133 31.81046312 22.49818944 29 20 C29 19.34 29 18.68 29 18 C28.05125 17.731875 27.1025 17.46375 26.125 17.1875 C23 16 23 16 21 13 C20.01 12.67 19.02 12.34 18 12 C18 11.34 18 10.68 18 10 C17.28070313 9.731875 16.56140625 9.46375 15.8203125 9.1875 C12.98991942 7.99575554 10.49282165 6.60111416 7.875 5 C7.02679688 4.484375 6.17859375 3.96875 5.3046875 3.4375 C3.5169104 2.32241191 1.75315355 1.16876903 0 0 Z " fill="#3BC867" transform="translate(261,49)"/>
<path d="M0 0 C0.33 0 0.66 0 1 0 C1.2149992 13.82610232 1.28164458 27.33050435 -1 41 C-2.485 41.495 -2.485 41.495 -4 42 C-3.938125 42.78375 -3.87625 43.5675 -3.8125 44.375 C-3.874375 45.24125 -3.93625 46.1075 -4 47 C-4.99 47.66 -5.98 48.32 -7 49 C-6.72736328 48.06994141 -6.72736328 48.06994141 -6.44921875 47.12109375 C-1.95336222 31.28184537 -0.38694102 16.40330651 0 0 Z " fill="#3DC968" transform="translate(301,166)"/>
<path d="M0 0 C1.5045155 3.93565314 0.45204072 7.36030282 -0.4375 11.3125 C-3.07560761 24.17841566 -2.03256378 37.00075956 -1 50 C-7.82650402 37.40149258 -4.0572769 16.85787936 -3 3 C-2.34 3 -1.68 3 -1 3 C-0.67 2.01 -0.34 1.02 0 0 Z " fill="#35D264" transform="translate(102,147)"/>
<path d="M0 0 C0.99 0.33 1.98 0.66 3 1 C3.33 3.64 3.66 6.28 4 9 C3.34 8.01 2.68 7.02 2 6 C1.67 16.23 1.34 26.46 1 37 C-0.98 37 -2.96 37 -5 37 C-4.67 36.01 -4.34 35.02 -4 34 C-3.01 34 -2.02 34 -1 34 C-0.67 22.78 -0.34 11.56 0 0 Z " fill="#2FDB60" transform="translate(106,344)"/>
<path d="M0 0 C0.66 0 1.32 0 2 0 C1.9375 1.8125 1.9375 1.8125 1 4 C-0.7325 4.7115625 -0.7325 4.7115625 -2.5 5.4375 C-3.655 5.953125 -4.81 6.46875 -6 7 C-6.66347631 9.48400985 -6.66347631 9.48400985 -7 12 C-9.63002642 13.93791421 -11.90113556 14.96704519 -15 16 C-15 17.98 -15 19.96 -15 22 C-15.66 21.67 -16.32 21.34 -17 21 C-16.875 17.75 -16.875 17.75 -16 14 C-13.125 11.875 -13.125 11.875 -10 10 C-9.505 9.13375 -9.01 8.2675 -8.5 7.375 C-6.49811275 4.20534519 -4.49249197 4.06293234 -1 3 C-0.67 2.01 -0.34 1.02 0 0 Z " fill="#38CD68" transform="translate(180,100)"/>
<path d="M0 0 C6.15234375 -0.09765625 6.15234375 -0.09765625 8 0 C9 1 9 1 9.09765625 3.06640625 C9.08605469 3.89011719 9.07445312 4.71382813 9.0625 5.5625 C9.05347656 6.38878906 9.04445312 7.21507812 9.03515625 8.06640625 C9.02355469 8.70449219 9.01195312 9.34257812 9 10 C8.01 9.67 7.02 9.34 6 9 C6 7.02 6 5.04 6 3 C5.34 3 4.68 3 4 3 C3.67 5.31 3.34 7.62 3 10 C2.01 9.67 1.02 9.34 0 9 C0 6.03 0 3.06 0 0 Z " fill="#3FD06C" transform="translate(195,408)"/>
<path d="M0 0 C6.91548827 0.34010598 13.32253916 1.69929014 20 3.4375 C21.27387573 3.7636731 21.27387573 3.7636731 22.57348633 4.09643555 C23.37423584 4.31082275 24.17498535 4.52520996 25 4.74609375 C25.721875 4.93872803 26.44375 5.1313623 27.1875 5.32983398 C29 6 29 6 31 8 C28.25 8.6875 28.25 8.6875 25 9 C23.64082143 8.03542166 22.30915279 7.03145371 21 6 C18.67612053 5.60612212 16.34206251 5.26513915 14 5 C13.67 4.67 13.34 4.34 13 4 C10.19072041 3.75649904 7.38265838 3.61608999 4.56640625 3.4765625 C3.71949219 3.31929687 2.87257812 3.16203125 2 3 C1.34 2.01 0.68 1.02 0 0 Z " fill="#37CF69" transform="translate(220,36)"/>
<path d="M0 0 C5 0 10 0 15 0 C15 0.66 15 1.32 15 2 C14.01 2.495 14.01 2.495 13 3 C12.34786708 5.02463255 12.34786708 5.02463255 12 7 C11.01 7 10.02 7 9 7 C9 7.66 9 8.32 9 9 C8.01 9 7.02 9 6 9 C6 6.69 6 4.38 6 2 C4.35 1.67 2.7 1.34 1 1 C0.67 1.66 0.34 2.32 0 3 C0 2.01 0 1.02 0 0 Z " fill="#3BD26C" transform="translate(59,408)"/>
<path d="M0 0 C0.33 0 0.66 0 1 0 C1 7.59 1 15.18 1 23 C-0.98 23 -2.96 23 -5 23 C-5 20.69 -5 18.38 -5 16 C-3.35 16 -1.7 16 0 16 C0 10.72 0 5.44 0 0 Z " fill="#29DB5F" transform="translate(336,358)"/>
<path d="M0 0 C4.95 0 9.9 0 15 0 C15 0.66 15 1.32 15 2 C25.23 2 35.46 2 46 2 C46 2.33 46 2.66 46 3 C41.53834423 3.05016131 37.07684626 3.08607179 32.61499023 3.10986328 C31.10324233 3.11980161 29.59151301 3.13335698 28.07983398 3.15087891 C18.48523174 3.25914856 9.45403666 2.8319455 0 1 C0 0.67 0 0.34 0 0 Z " fill="#36D167" transform="translate(171,315)"/>
<path d="M0 0 C0.33 0 0.66 0 1 0 C1.33 3.3 1.66 6.6 2 10 C5.465 9.505 5.465 9.505 9 9 C9 7.02 9 5.04 9 3 C9.66 2.67 10.32 2.34 11 2 C10.67 3.98 10.34 5.96 10 8 C11.3921875 8.1546875 11.3921875 8.1546875 12.8125 8.3125 C16.03254358 9.0070192 17.02579865 9.47740939 19 12 C18.67 12.66 18.34 13.32 18 14 C17.01 13.01 16.02 12.02 15 11 C14.01 11.495 14.01 11.495 13 12 C10.7927077 12.07092842 8.58332548 12.08415025 6.375 12.0625 C5.18648437 12.05347656 3.99796875 12.04445312 2.7734375 12.03515625 C1.85820312 12.02355469 0.94296875 12.01195312 0 12 C0 8.04 0 4.08 0 0 Z " fill="#3FCA6B" transform="translate(225,135)"/>
<path d="M0 0 C2.3885903 2.14994098 3.60591938 3.98488148 4.75390625 6.9765625 C5.05103516 7.729375 5.34816406 8.4821875 5.65429688 9.2578125 C5.95400391 10.03898437 6.25371094 10.82015625 6.5625 11.625 C7.1616858 13.18211978 7.76686253 14.73695164 8.37890625 16.2890625 C8.77444702 17.32087646 8.77444702 17.32087646 9.17797852 18.37353516 C9.89643706 20.19677832 9.89643706 20.19677832 12 21 C12.40729228 23.32156597 12.74438677 25.6568787 13 28 C10 27 10 27 8.74145508 24.62329102 C8.33822021 23.59389404 7.93498535 22.56449707 7.51953125 21.50390625 C7.07802734 20.38822266 6.63652344 19.27253906 6.18164062 18.12304688 C5.72982422 16.94806641 5.27800781 15.77308594 4.8125 14.5625 C4.34908203 13.39138672 3.88566406 12.22027344 3.40820312 11.01367188 C0 2.31497377 0 2.31497377 0 0 Z " fill="#38D16C" transform="translate(110,353)"/>
<path d="M0 0 C0.66 0.33 1.32 0.66 2 1 C0.8125 3.4375 0.8125 3.4375 -1 6 C-2.66014616 6.36442233 -4.32706064 6.69972883 -6 7 C-7.36020151 8.96758273 -7.36020151 8.96758273 -8 11 C-8.886875 10.979375 -9.77375 10.95875 -10.6875 10.9375 C-13.62169631 10.99286219 -16.15493696 11.3305734 -19 12 C-15.50922465 9.20386257 -11.7049507 7.05031022 -7.8125 4.875 C-3.65851669 2.76869383 -3.65851669 2.76869383 0 0 Z " fill="#34D162" transform="translate(224,205)"/>
<path d="M0 0 C0.66 0.99 1.32 1.98 2 3 C1.01 4.485 1.01 4.485 0 6 C0.20625 6.804375 0.4125 7.60875 0.625 8.4375 C0.74875 9.283125 0.8725 10.12875 1 11 C-0.6875 13.0625 -0.6875 13.0625 -3 15 C-4.051875 16.11375 -4.051875 16.11375 -5.125 17.25 C-7 19 -7 19 -9 19 C-7.39369175 14.75707468 -5.4231838 10.72974893 -3.375 6.6875 C-3.05015625 6.04232422 -2.7253125 5.39714844 -2.390625 4.73242188 C-1.59558044 3.15402459 -0.79804366 1.57688306 0 0 Z " fill="#31D461" transform="translate(293,215)"/>
<path d="M0 0 C1.98 0 3.96 0 6 0 C4.68 0.33 3.36 0.66 2 1 C2 3.31 2 5.62 2 8 C0.33333333 8 -1.33333333 8 -3 8 C-4.66965451 8.31802943 -6.33678518 8.64984951 -8 9 C-7.34 8.67 -6.68 8.34 -6 8 C-5.26924352 5.6859378 -4.59861742 3.35171131 -4 1 C-2.68 1.33 -1.36 1.66 0 2 C0 1.34 0 0.68 0 0 Z " fill="#31DC60" transform="translate(60,409)"/>
<path d="M0 0 C1.65 0 3.3 0 5 0 C1.17514351 4.15777436 -2.83402861 7.01281706 -7.6875 9.875 C-8.36361328 10.29007812 -9.03972656 10.70515625 -9.73632812 11.1328125 C-11.45182951 12.15699243 -13.22273988 13.08718238 -15 14 C-15.66 13.67 -16.32 13.34 -17 13 C-16.01 12.67 -15.02 12.34 -14 12 C-14 11.01 -14 10.02 -14 9 C-13.071875 8.731875 -12.14375 8.46375 -11.1875 8.1875 C-8.1688359 7.06289965 -7.0844857 6.29293427 -5 4 C-4.34 4 -3.68 4 -3 4 C-2.01 3.67 -1.02 3.34 0 3 C0 2.01 0 1.02 0 0 Z " fill="#33D362" transform="translate(281,289)"/>
<path d="M0 0 C0.97001953 0.05671875 1.94003906 0.1134375 2.93945312 0.171875 C5.31466354 0.31228153 7.68864124 0.46357378 10.0625 0.625 C10.0625 0.955 10.0625 1.285 10.0625 1.625 C9.21655273 1.70802368 9.21655273 1.70802368 8.35351562 1.79272461 C5.75640274 2.048235 3.15945183 2.305358 0.5625 2.5625 C-0.324375 2.64951172 -1.21125 2.73652344 -2.125 2.82617188 C-7.40743182 3.35053092 -12.67314146 3.94235538 -17.9375 4.625 C-17.9375 3.635 -17.9375 2.645 -17.9375 1.625 C-11.79417041 -0.60738884 -6.46949703 -0.44220759 0 0 Z " fill="#39D266" transform="translate(189.9375,74.375)"/>
<path d="M0 0 C0 0.66 0 1.32 0 2 C-3.27128281 3.19681078 -6.22433502 4.03041831 -9.6875 4.5 C-13.12962965 4.77997994 -13.12962965 4.77997994 -16 7 C-20.25180014 8.09332004 -24.6471987 8.48356595 -29 9 C-25.73722089 6.82481392 -22.50257351 5.69706129 -18.8125 4.5 C-18.13993164 4.27932861 -17.46736328 4.05865723 -16.77441406 3.83129883 C-4.96516672 0 -4.96516672 0 0 0 Z " fill="#38CE66" transform="translate(166,205)"/>
<path d="M0 0 C6.13340841 2.13180603 10.79489908 3.9538789 15 9 C11.6875 10.125 11.6875 10.125 8 11 C7.01 10.34 6.02 9.68 5 9 C5.33 7.35 5.66 5.7 6 4 C4.02 3.34 2.04 2.68 0 2 C0 1.34 0 0.68 0 0 Z " fill="#2BD961" transform="translate(252,44)"/>
<path d="M0 0 C-0.33 0.99 -0.66 1.98 -1 3 C0.32 3.33 1.64 3.66 3 4 C-0.32307692 7.93846154 -0.32307692 7.93846154 -3.75 8.25 C-4.4925 8.1675 -5.235 8.085 -6 8 C-4.68 7.34 -3.36 6.68 -2 6 C-2.33 5.01 -2.66 4.02 -3 3 C-4.32 3 -5.64 3 -7 3 C-7.33 3.99 -7.66 4.98 -8 6 C-8.66 4.02 -9.32 2.04 -10 0 C-2.25 -1.125 -2.25 -1.125 0 0 Z " fill="#29D760" transform="translate(203,240)"/>
<path d="M0 0 C1 2 1 2 0.1875 4.5625 C-0.204375 5.696875 -0.59625 6.83125 -1 8 C-1.72620457 10.98767384 -2.37133318 13.99042482 -3 17 C-7.6875 13.38671875 -7.6875 13.38671875 -9 12 C-9 11.01 -9 10.02 -9 9 C-9.66 9 -10.32 9 -11 9 C-10.67 7.68 -10.34 6.36 -10 5 C-9.65066406 5.5775 -9.30132812 6.155 -8.94140625 6.75 C-8.48636719 7.4925 -8.03132813 8.235 -7.5625 9 C-7.11003906 9.7425 -6.65757813 10.485 -6.19140625 11.25 C-5.60166016 12.11625 -5.60166016 12.11625 -5 13 C-4.67 13 -4.34 13 -4 13 C-3.87882812 12.31292969 -3.75765625 11.62585938 -3.6328125 10.91796875 C-3.38144531 9.56638672 -3.38144531 9.56638672 -3.125 8.1875 C-2.96257812 7.29417969 -2.80015625 6.40085938 -2.6328125 5.48046875 C-2 3 -2 3 0 0 Z " fill="#3CCD67" transform="translate(124,223)"/>
<path d="M0 0 C2.375 0.3125 2.375 0.3125 5 1 C7.1519437 4.22791555 7.20086443 5.28400809 7 9 C7.66 9 8.32 9 9 9 C10.6875 11.375 10.6875 11.375 12 14 C11.67 14.66 11.34 15.32 11 16 C9.34908416 13.89965153 7.70418762 11.79504167 6.0625 9.6875 C5.59392578 9.09259766 5.12535156 8.49769531 4.64257812 7.88476562 C2.61444041 5.27299116 1.05369199 3.16107597 0 0 Z " fill="#34D165" transform="translate(80,252)"/>
<path d="M0 0 C0.66 0 1.32 0 2 0 C2 1.32 2 2.64 2 4 C3.32 4 4.64 4 6 4 C6 4.99 6 5.98 6 7 C4.68 7.33 3.36 7.66 2 8 C2.061875 9.423125 2.061875 9.423125 2.125 10.875 C2 14 2 14 0 16 C0 10.72 0 5.44 0 0 Z M7 2 C7.66 2.66 8.32 3.32 9 4 C8.01 3.67 7.02 3.34 6 3 C6.33 2.67 6.66 2.34 7 2 Z " fill="#24DC5D" transform="translate(231,164)"/>
<path d="M0 0 C0.33 0 0.66 0 1 0 C1.33 3.3 1.66 6.6 2 10 C1.01 10.495 1.01 10.495 0 11 C-0.78623891 13.16072227 -1.48201226 15.35490875 -2.125 17.5625 C-2.65480469 19.35880859 -2.65480469 19.35880859 -3.1953125 21.19140625 C-3.46085938 22.11824219 -3.72640625 23.04507812 -4 24 C-5.09180878 20.69470655 -4.88297902 18.57913968 -4.00390625 15.234375 C-3.66069336 13.90019531 -3.66069336 13.90019531 -3.31054688 12.5390625 C-2.94026367 11.15847656 -2.94026367 11.15847656 -2.5625 9.75 C-2.31951172 8.81414062 -2.07652344 7.87828125 -1.82617188 6.9140625 C-1.22587133 4.6070251 -0.61689335 2.30264561 0 0 Z " fill="#3DD16B" transform="translate(144,345)"/>
<path d="M0 0 C1.32 0.33 2.64 0.66 4 1 C3.2884375 1.495 3.2884375 1.495 2.5625 2 C0.78777274 4.27165089 0.70947493 5.31459241 0.4375 8.125 C0.293125 9.40375 0.14875 10.6825 0 12 C-0.99 12.495 -0.99 12.495 -2 13 C-2.66 13.99 -3.32 14.98 -4 16 C-4.94296589 12.33291043 -5.11421833 9.64653273 -4 6 C-3.34 5.67 -2.68 5.34 -2 5 C-1.27840576 3.35636866 -0.60648579 1.68949614 0 0 Z " fill="#2FD863" transform="translate(353,335)"/>
<path d="M0 0 C0.556875 0.226875 1.11375 0.45375 1.6875 0.6875 C1.0275 2.0075 0.3675 3.3275 -0.3125 4.6875 C-0.9725 4.6875 -1.6325 4.6875 -2.3125 4.6875 C-2.3125 4.0275 -2.3125 3.3675 -2.3125 2.6875 C-4.31113756 3.26694932 -4.31113756 3.26694932 -6.3125 4.6875 C-8.35866118 9.21059313 -8.8068368 13.7994224 -9.3125 18.6875 C-9.6425 18.6875 -9.9725 18.6875 -10.3125 18.6875 C-10.88278066 6.62712004 -10.88278066 6.62712004 -7.3125 2.6875 C-3.24813218 -0.43893678 -3.24813218 -0.43893678 0 0 Z " fill="#37CF68" transform="translate(213.3125,329.3125)"/>
<path d="M0 0 C2.97 0.495 2.97 0.495 6 1 C6 1.66 6 2.32 6 3 C6.66 3.66 7.32 4.32 8 5 C6.41105928 6.58894072 4.75198576 6.16998411 2.5625 6.1875 C1.35787109 6.20876953 1.35787109 6.20876953 0.12890625 6.23046875 C-2 6 -2 6 -4 4 C-2.68 3.67 -1.36 3.34 0 3 C0 2.01 0 1.02 0 0 Z " fill="#1EE448" transform="translate(138,249)"/>
<path d="M0 0 C0.33 0.66 0.66 1.32 1 2 C-0.7634375 1.9071875 -0.7634375 1.9071875 -2.5625 1.8125 C-6.99852228 1.84390547 -10.13223004 2.69421406 -14 5 C-15.70456064 7.26269112 -16.78023196 9.41409175 -18 12 C-19.10647487 9.28410714 -19.08305152 8.21281952 -18 5.4375 C-13.18874735 -0.42621416 -7.0448986 -0.43132032 0 0 Z " fill="#39CB67" transform="translate(191,125)"/>
<path d="M0 0 C0.99 0.33 1.98 0.66 3 1 C2.67 3.31 2.34 5.62 2 8 C-1.28696233 8.79953138 -2.71023192 9.09658936 -6 8 C-6 6.35 -6 4.7 -6 3 C-5.67 3.66 -5.34 4.32 -5 5 C-2.47266765 5.65555119 -2.47266765 5.65555119 0 6 C-0.2784375 4.7934375 -0.2784375 4.7934375 -0.5625 3.5625 C-0.706875 2.716875 -0.85125 1.87125 -1 1 C-0.67 0.67 -0.34 0.34 0 0 Z " fill="#2DD75C" transform="translate(106,409)"/>
<path d="M0 0 C2.5625 2.1875 2.5625 2.1875 5 5 C4.8125 7.8125 4.8125 7.8125 4 10 C1.25 10.375 1.25 10.375 -2 10 C-4.375 7 -4.375 7 -6 4 C-5.13375 4.495 -5.13375 4.495 -4.25 5 C-1.80116138 6.27075898 -1.80116138 6.27075898 2 6 C1.34 4.02 0.68 2.04 0 0 Z " fill="#3ECE6F" transform="translate(368,331)"/>
<path d="M0 0 C0.33 0.66 0.66 1.32 1 2 C2.65 1.67 4.3 1.34 6 1 C7.49821059 4.37097383 8 6.20442119 8 10 C7.34 10 6.68 10 6 10 C6 9.01 6 8.02 6 7 C5.01 7 4.02 7 3 7 C3 6.34 3 5.68 3 5 C2.34 5 1.68 5 1 5 C0.67 3.35 0.34 1.7 0 0 Z " fill="#21DF57" transform="translate(343,367)"/>
<path d="M0 0 C2.46968633 2.46968633 3.06997969 4.57488587 4.1875 7.875 C4.55230469 8.92429688 4.91710937 9.97359375 5.29296875 11.0546875 C5.98462433 13.93594885 6.03230681 15.27786612 5 18 C2.68488782 13.66051066 0.88560409 9.8708225 0 5 C-0.66 4.67 -1.32 4.34 -2 4 C-1.34 4 -0.68 4 0 4 C0 2.68 0 1.36 0 0 Z " fill="#33D266" transform="translate(331,122)"/>
<path d="M0 0 C1.32 0.33 2.64 0.66 4 1 C3.67 2.98 3.34 4.96 3 7 C3.99 7 4.98 7 6 7 C6 7.66 6 8.32 6 9 C3.69 8.34 1.38 7.68 -1 7 C-1.625 5.1875 -1.625 5.1875 -2 3 C-1.34 2.01 -0.68 1.02 0 0 Z " fill="#2BDC63" transform="translate(300,409)"/>
<path d="M0 0 C0 1.66666667 0 3.33333333 0 5 C0.66 3.68 1.32 2.36 2 1 C2.99 1.33 3.98 1.66 5 2 C1 8.57142857 1 8.57142857 -3 10 C-3 9.01 -3 8.02 -3 7 C-4.32 7.33 -5.64 7.66 -7 8 C-6.02133662 6.85373678 -5.04205413 5.70800212 -4.0625 4.5625 C-3.51722656 3.92441406 -2.97195312 3.28632813 -2.41015625 2.62890625 C-1.63204305 1.73008851 -0.84063472 0.84063472 0 0 Z " fill="#3ACC66" transform="translate(224,190)"/>
<path d="M0 0 C-1.375 2 -1.375 2 -4 4 C-7.3580469 4.35791096 -10.63536357 4.23115823 -14 4 C-13.67 3.01 -13.34 2.02 -13 1 C-11.20994059 0.63779734 -9.41787943 0.28547531 -7.625 -0.0625 C-6.12839844 -0.35833984 -6.12839844 -0.35833984 -4.6015625 -0.66015625 C-2 -1 -2 -1 0 0 Z " fill="#20E052" transform="translate(227,377)"/>
<path d="M0 0 C2.75153071 0.61879402 5.50108898 1.24476186 8.25 1.875 C9.02730469 2.04902344 9.80460938 2.22304687 10.60546875 2.40234375 C11.73662109 2.66337891 11.73662109 2.66337891 12.890625 2.9296875 C13.92751465 3.16534424 13.92751465 3.16534424 14.98535156 3.40576172 C17 4 17 4 21 6 C18.03 6 15.06 6 12 6 C12 5.34 12 4.68 12 4 C10.7315625 4.061875 10.7315625 4.061875 9.4375 4.125 C5.57786731 3.98464972 2.66311987 3.17219836 -1 2 C-0.67 1.34 -0.34 0.68 0 0 Z " fill="#37C868" transform="translate(227,203)"/>
<path d="M0 0 C6.00267826 6.38994783 5.14957243 13.74027807 5 22 C4.67 22 4.34 22 4 22 C3.32838005 18.89688362 2.66356325 15.79234832 2 12.6875 C1.80921875 11.80642578 1.6184375 10.92535156 1.421875 10.01757812 C1.24140625 9.17001953 1.0609375 8.32246094 0.875 7.44921875 C0.70742188 6.66893311 0.53984375 5.88864746 0.3671875 5.0847168 C0 3 0 3 0 0 Z " fill="#39CD65" transform="translate(296,143)"/>
<path d="M0 0 C1.98 0 3.96 0 6 0 C5.67 1.98 5.34 3.96 5 6 C3.35 6.33 1.7 6.66 0 7 C0 4.69 0 2.38 0 0 Z " fill="#23DF5B" transform="translate(138,374)"/>
<path d="M0 0 C2.86724686 0.57344937 3.8614515 0.8614515 6 3 C5.67 3.99 5.34 4.98 5 6 C3.0625 6.8125 3.0625 6.8125 1 7 C0.34 6.34 -0.32 5.68 -1 5 C-0.625 2.375 -0.625 2.375 0 0 Z " fill="#21DF55" transform="translate(351,347)"/>
<path d="M0 0 C0.66 0 1.32 0 2 0 C2 1.98 2 3.96 2 6 C2.99 6 3.98 6 5 6 C5 6.66 5 7.32 5 8 C0.545 8.495 0.545 8.495 -4 9 C-3.67 7.35 -3.34 5.7 -3 4 C-2.01 4.33 -1.02 4.66 0 5 C0 3.35 0 1.7 0 0 Z " fill="#2BD55C" transform="translate(319,409)"/>
<path d="M0 0 C0.66 0.33 1.32 0.66 2 1 C-1.06800712 4.54000822 -3.62474045 5.54158015 -8 7 C-8.33 7.99 -8.66 8.98 -9 10 C-10.32 9.67 -11.64 9.34 -13 9 C-8.71 6.03 -4.42 3.06 0 0 Z " fill="#3BCC64" transform="translate(127,54)"/>
<path d="M0 0 C0.33 1.32 0.66 2.64 1 4 C1.33 3.01 1.66 2.02 2 1 C2.66 1 3.32 1 4 1 C4.33 1.99 4.66 2.98 5 4 C5.99 4.33 6.98 4.66 8 5 C8 5.66 8 6.32 8 7 C6.948125 6.814375 5.89625 6.62875 4.8125 6.4375 C1.42880118 6.04920669 -0.76425888 6.11752515 -4 7 C-4 6.01 -4 5.02 -4 4 C-3.01 3.67 -2.02 3.34 -1 3 C-0.67 2.01 -0.34 1.02 0 0 Z " fill="#2BDF56" transform="translate(137,411)"/>
<path d="M0 0 C1.65 0 3.3 0 5 0 C4.67 1.32 4.34 2.64 4 4 C4.66 4.33 5.32 4.66 6 5 C2.66666667 5.66666667 -0.66666667 6.33333333 -4 7 C-4 6.01 -4 5.02 -4 4 C-3.01 3.67 -2.02 3.34 -1 3 C-0.67 2.01 -0.34 1.02 0 0 Z " fill="#31D75F" transform="translate(126,411)"/>
<path d="M0 0 C0.66 0 1.32 0 2 0 C3.09658936 3.28976808 2.79953138 4.71303767 2 8 C1.360625 8.12375 0.72125 8.2475 0.0625 8.375 C-0.618125 8.58125 -1.29875 8.7875 -2 9 C-2.33 9.66 -2.66 10.32 -3 11 C-3.125 8.625 -3.125 8.625 -3 6 C-2.34 5.34 -1.68 4.68 -1 4 C-0.3574765 1.93125966 -0.3574765 1.93125966 0 0 Z " fill="#1FE057" transform="translate(146,350)"/>
<path d="M0 0 C0 1.32 0 2.64 0 4 C-4.95 5.485 -4.95 5.485 -10 7 C-9.67 5.68 -9.34 4.36 -9 3 C-3.10714286 0 -3.10714286 0 0 0 Z " fill="#2BD85E" transform="translate(221,197)"/>
<path d="M0 0 C0.33 0 0.66 0 1 0 C1.24878997 2.43694274 1.47463404 4.87238389 1.6875 7.3125 C1.79674805 8.34793945 1.79674805 8.34793945 1.90820312 9.40429688 C2.33135078 14.55674183 2.33135078 14.55674183 0.51953125 16.98046875 C0.01808594 17.31691406 -0.48335937 17.65335938 -1 18 C-1.33 15.36 -1.66 12.72 -2 10 C-1.34 10 -0.68 10 0 10 C0 6.7 0 3.4 0 0 Z " fill="#3DCA6D" transform="translate(167,166)"/>
<path d="M0 0 C1.32 0 2.64 0 4 0 C2.38325319 3.42946293 0.42402323 6.56263052 -1.625 9.75 C-2.57246094 11.22726563 -2.57246094 11.22726563 -3.5390625 12.734375 C-4.02117187 13.48203125 -4.50328125 14.2296875 -5 15 C-6.2077558 11.37673261 -5.54311128 10.35853631 -4 7 C-3.34 7 -2.68 7 -2 7 C-2 6.34 -2 5.68 -2 5 C-1.34 5 -0.68 5 0 5 C0 3.35 0 1.7 0 0 Z " fill="#34D05F" transform="translate(117,113)"/>
<path d="M0 0 C2.475 0.99 2.475 0.99 5 2 C5 2.66 5 3.32 5 4 C5.66 4 6.32 4 7 4 C7 5.65 7 7.3 7 9 C5.0085944 9.38133299 3.00720923 9.71325582 1 10 C0 9 0 9 -0.09765625 6.93359375 C-0.08605469 6.10988281 -0.07445312 5.28617188 -0.0625 4.4375 C-0.05347656 3.61121094 -0.04445312 2.78492188 -0.03515625 1.93359375 C-0.02355469 1.29550781 -0.01195312 0.65742188 0 0 Z M1 4 C1.33 5.65 1.66 7.3 2 9 C3.32 8.34 4.64 7.68 6 7 C5.67 6.01 5.34 5.02 5 4 C3.68 4 2.36 4 1 4 Z " fill="#30D163" transform="translate(196,226)"/>
<path d="M0 0 C0.66 0 1.32 0 2 0 C1.979375 0.78375 1.95875 1.5675 1.9375 2.375 C1.81315937 4.98114961 1.81315937 4.98114961 3 7 C1.35 7 -0.3 7 -2 7 C-2 6.34 -2 5.68 -2 5 C-3.65 5.66 -5.3 6.32 -7 7 C-6.67 6.01 -6.34 5.02 -6 4 C-2.9375 2.8125 -2.9375 2.8125 0 2 C0 1.34 0 0.68 0 0 Z " fill="#39D067" transform="translate(163,140)"/>
<path d="M0 0 C-2.31 2.31 -4.62 4.62 -7 7 C-9 3 -9 3 -9 0 C-5.32431536 -0.91892116 -3.83619425 -0.95904856 0 0 Z " fill="#34D264" transform="translate(129,106)"/>
<path d="M0 0 C-0.33 0.99 -0.66 1.98 -1 3 C-0.34 3.33 0.32 3.66 1 4 C1 4.66 1 5.32 1 6 C-3.75 5.25 -3.75 5.25 -6 3 C-6.99 2.67 -7.98 2.34 -9 2 C-3.375 -1.125 -3.375 -1.125 0 0 Z " fill="#2FD762" transform="translate(143,48)"/>
<path d="M0 0 C2.23915618 3.35873427 3.69032729 6.8389434 5.1875 10.5625 C5.47302734 11.24763672 5.75855469 11.93277344 6.05273438 12.63867188 C6.76394161 14.4019813 7.38874045 16.19960071 8 18 C7.67 18.66 7.34 19.32 7 20 C3.02723755 14.04085632 -0.37624629 7.26544556 0 0 Z " fill="#3ECC6B" transform="translate(249,332)"/>
<path d="M0 0 C0 4.15560231 -2.2820452 5.84099329 -5 8.6875 C-5.47695313 9.19861328 -5.95390625 9.70972656 -6.4453125 10.23632812 C-7.62359915 11.49709484 -8.81095253 12.74937686 -10 14 C-10.66 12.68 -11.32 11.36 -12 10 C-11.401875 9.896875 -10.80375 9.79375 -10.1875 9.6875 C-7.63395965 8.88495875 -6.67942636 8.06111416 -5 6 C-4.505 4.9790625 -4.505 4.9790625 -4 3.9375 C-3 2 -3 2 0 0 Z " fill="#3CC666" transform="translate(312,262)"/>
<path d="M0 0 C0.33 0 0.66 0 1 0 C1.33 1.98 1.66 3.96 2 6 C3.65 4.35 5.3 2.7 7 1 C6.64598897 4.18609925 6.16972964 5.79066678 4.125 8.3125 C2 10 2 10 -1 10 C-0.67 6.7 -0.34 3.4 0 0 Z " fill="#35D164" transform="translate(277,233)"/>
<path d="M0 0 C3.35595828 0.59927826 5.37801226 1.84622436 8 4 C7.67 6.64 7.34 9.28 7 12 C6.67 12 6.34 12 6 12 C5.9175 11.2575 5.835 10.515 5.75 9.75 C4.85280293 6.4602774 3.45029221 5.29714895 1 3 C0.67 2.01 0.34 1.02 0 0 Z " fill="#25D95F" transform="translate(237,145)"/>
<path d="M0 0 C-3.5397007 2.35980046 -5.99106288 2.58600808 -10.1875 3.125 C-11.45980469 3.29257812 -12.73210937 3.46015625 -14.04296875 3.6328125 C-15.01878906 3.75398438 -15.99460938 3.87515625 -17 4 C-17 3.34 -17 2.68 -17 2 C-11.21642935 -0.01167675 -6.09781001 -0.22084624 0 0 Z " fill="#3ACD65" transform="translate(238,313)"/>
<path d="M0 0 C0.33 0 0.66 0 1 0 C1.28780586 3.05074215 1.45787911 5.96183742 1 9 C-1.5 11.0625 -1.5 11.0625 -4 12 C-4.33 11.34 -4.66 10.68 -5 10 C-4.00390625 7.6171875 -4.00390625 7.6171875 -2.5625 4.875 C-1.85287109 3.50988281 -1.85287109 3.50988281 -1.12890625 2.1171875 C-0.75636719 1.41851562 -0.38382812 0.71984375 0 0 Z " fill="#33D364" transform="translate(75,108)"/>
<path d="M0 0 C0.66 0 1.32 0 2 0 C3.25664978 2.90600261 4 4.79604584 4 8 C4.66 8 5.32 8 6 8 C7.66670026 11.52948291 8.13583456 13.28272326 7 17 C5.83112499 14.35512211 4.66480453 11.70916976 3.5 9.0625 C3.16613281 8.30775391 2.83226563 7.55300781 2.48828125 6.77539062 C0 1.11328125 0 1.11328125 0 0 Z " fill="#3BCB68" transform="translate(67,226)"/>
<path d="M0 0 C0.66 0 1.32 0 2 0 C2 2.97 2 5.94 2 9 C0.02 9 -1.96 9 -4 9 C-4 8.34 -4 7.68 -4 7 C-3.525625 6.54625 -3.05125 6.0925 -2.5625 5.625 C-0.77906263 3.77022513 -0.4308007 2.49864408 0 0 Z " fill="#30DF61" transform="translate(188,409)"/>
<path d="M0 0 C0.33 0.99 0.66 1.98 1 3 C0.34 3.66 -0.32 4.32 -1 5 C-1.33 4.01 -1.66 3.02 -2 2 C-3.65 2.66 -5.3 3.32 -7 4 C-7.99 3.01 -8.98 2.02 -10 1 C-6.52674819 -0.1577506 -3.63932552 -0.06866652 0 0 Z " fill="#39CB66" transform="translate(354,408)"/>
<path d="M0 0 C0.99 0.33 1.98 0.66 3 1 C3.33 3.64 3.66 6.28 4 9 C3.34 8.01 2.68 7.02 2 6 C1.67 8.97 1.34 11.94 1 15 C0.67 15 0.34 15 0 15 C0 10.05 0 5.1 0 0 Z " fill="#39D86B" transform="translate(106,344)"/>
<path d="M0 0 C4.16486198 -0.30017023 6.65015727 0.54675054 10.3125 2.5 C11.19550781 2.9640625 12.07851562 3.428125 12.98828125 3.90625 C13.65214844 4.2671875 14.31601563 4.628125 15 5 C11.01508155 6.32830615 9.59951452 5.23204404 5.8125 3.5625 C4.72582031 3.08941406 3.63914063 2.61632812 2.51953125 2.12890625 C1.68808594 1.75636719 0.85664063 1.38382812 0 1 C0 0.67 0 0.34 0 0 Z " fill="#3ACE6C" transform="translate(138,304)"/>
<path d="M0 0 C0.99 0.33 1.98 0.66 3 1 C3.33 3.64 3.66 6.28 4 9 C3.01 9 2.02 9 1 9 C-0.4783226 6.04335481 -0.06032783 3.25770263 0 0 Z " fill="#2DD662" transform="translate(167,180)"/>
<path d="M0 0 C1 3 1 3 -0.25 6.5 C-2.62068966 11.24137931 -2.62068966 11.24137931 -5 13 C-5.66 13 -6.32 13 -7 13 C-7 12.01 -7 11.02 -7 10 C-5.824375 9.1028125 -5.824375 9.1028125 -4.625 8.1875 C-1.56956827 5.64130689 -0.94917937 3.79671748 0 0 Z " fill="#3ACB6B" transform="translate(244,158)"/>
<path d="M0 0 C-4.455 2.97 -4.455 2.97 -9 6 C-9.66 5.67 -10.32 5.34 -11 5 C-9.96508351 2.17750049 -9.30084735 1.16625774 -6.625 -0.3125 C-4 -1 -4 -1 0 0 Z " fill="#3ACB6A" transform="translate(148,91)"/>
<path d="M0 0 C2.31 0.33 4.62 0.66 7 1 C7 1.66 7 2.32 7 3 C5.68 3 4.36 3 3 3 C3 3.99 3 4.98 3 6 C2.01 6 1.02 6 0 6 C0 4.02 0 2.04 0 0 Z " fill="#2CDE5C" transform="translate(154,415)"/>
<path d="M0 0 C0.625 1.8125 0.625 1.8125 1 4 C0.01 5.485 0.01 5.485 -1 7 C-3.6015625 7.51171875 -3.6015625 7.51171875 -6.625 7.6875 C-8.12933594 7.78611328 -8.12933594 7.78611328 -9.6640625 7.88671875 C-10.82035156 7.94279297 -10.82035156 7.94279297 -12 8 C-11.34 6.68 -10.68 5.36 -10 4 C-9.67 4.33 -9.34 4.66 -9 5 C-5.51381119 4.90691463 -5.51381119 4.90691463 -2 4 C-0.48705712 2.06402968 -0.48705712 2.06402968 0 0 Z " fill="#32D25F" transform="translate(84,370)"/>
<path d="M0 0 C0 2 0 2 -2.125 4.5625 C-5.25517374 7.21634296 -6.97454466 7.71915428 -11 8 C-3.21621622 0 -3.21621622 0 0 0 Z " fill="#34CC68" transform="translate(266,254)"/>
<path d="M0 0 C0.33 0.66 0.66 1.32 1 2 C-1.19566645 8.47143795 -1.19566645 8.47143795 -4.1875 10.4375 C-5.0846875 10.7159375 -5.0846875 10.7159375 -6 11 C-4.54955729 6.89041233 -2.48889248 3.56741255 0 0 Z " fill="#35D166" transform="translate(84,94)"/>
<path d="M0 0 C0.66 0.99 1.32 1.98 2 3 C1.01 4.485 1.01 4.485 0 6 C-0.103125 6.825 -0.20625 7.65 -0.3125 8.5 C-1 11 -1 11 -3.5625 12.8125 C-4.366875 13.204375 -5.17125 13.59625 -6 14 C-4.16508812 9.25981099 -2.08058541 4.63586749 0 0 Z " fill="#3CCC67" transform="translate(293,215)"/>
<path d="M0 0 C0.66 0.33 1.32 0.66 2 1 C2.33333333 2.33333333 2.66666667 3.66666667 3 5 C3.66 5.33 4.32 5.66 5 6 C5 7.32 5 8.64 5 10 C4.01 10 3.02 10 2 10 C0 7 0 7 -1 4 C-0.5625 1.8125 -0.5625 1.8125 0 0 Z " fill="#37D76F" transform="translate(297,411)"/>
<path d="M0 0 C0.66 0.33 1.32 0.66 2 1 C0.68 5.62 -0.64 10.24 -2 15 C-2.33 15 -2.66 15 -3 15 C-3.35050464 9.158256 -3.16727335 5.1468192 0 0 Z " fill="#38CE63" transform="translate(151,347)"/>
<path d="M0 0 C2 2 2 2 2.125 4.625 C2.08375 5.40875 2.0425 6.1925 2 7 C2.99 7.33 3.98 7.66 5 8 C4.67 9.65 4.34 11.3 4 13 C3.34 13 2.68 13 2 13 C-0.28571429 4.57142857 -0.28571429 4.57142857 0 0 Z " fill="#37D468" transform="translate(154,351)"/>
<path d="M0 0 C0.66 0.99 1.32 1.98 2 3 C0.02 3.33 -1.96 3.66 -4 4 C-4.33 5.32 -4.66 6.64 -5 8 C-6 7 -6 7 -6.0625 4.4375 C-6.041875 3.633125 -6.02125 2.82875 -6 2 C-2.25 0.875 -2.25 0.875 0 2 C0 1.34 0 0.68 0 0 Z " fill="#29E457" transform="translate(333,410)"/>
<path d="M0 0 C0.99 1.485 0.99 1.485 2 3 C4.54045287 6.53678072 4.54045287 6.53678072 8 9 C8 9.66 8 10.32 8 11 C4.1281583 9.74426756 1.97161329 8.63191921 0 5 C-0.1875 2.25 -0.1875 2.25 0 0 Z " fill="#3DCB6D" transform="translate(292,370)"/>
<path d="M0 0 C5.35048061 0.37328935 7.50912907 1.9957657 11 6 C10.67 6.66 10.34 7.32 10 8 C9.52949219 7.59007812 9.05898437 7.18015625 8.57421875 6.7578125 C7.95160156 6.21898437 7.32898438 5.68015625 6.6875 5.125 C6.07261719 4.59132813 5.45773438 4.05765625 4.82421875 3.5078125 C2.86501788 1.8359553 2.86501788 1.8359553 0 0 Z " fill="#34CE6B" transform="translate(220,329)"/>
<path d="M0 0 C0.33 0.66 0.66 1.32 1 2 C3.52733235 2.65555119 3.52733235 2.65555119 6 3 C6 3.66 6 4.32 6 5 C6.804375 5.28875 7.60875 5.5775 8.4375 5.875 C11 7 11 7 12 9 C7.22390502 7.35821735 3.20617096 4.73453298 -1 2 C-0.67 1.34 -0.34 0.68 0 0 Z " fill="#3ACC68" transform="translate(122,293)"/>
<path d="M0 0 C0.66 0.33 1.32 0.66 2 1 C-2.625 5 -2.625 5 -6 5 C-6.66 6.32 -7.32 7.64 -8 9 C-8.66 9 -9.32 9 -10 9 C-8.60064115 5.59635112 -7.12995268 4.09193812 -4 2.1875 C-3.29875 1.74792969 -2.5975 1.30835938 -1.875 0.85546875 C-1.25625 0.57316406 -0.6375 0.29085937 0 0 Z " fill="#3ECA68" transform="translate(135,214)"/>
<path d="M0 0 C2.40575607 2.18517099 3.79535581 4.25919671 5.1875 7.1875 C5.53167969 7.90292969 5.87585938 8.61835937 6.23046875 9.35546875 C6.48441406 9.89816406 6.73835938 10.44085938 7 11 C3.23097793 9.30238262 1.80262292 7.78550813 0 4 C0 2.68 0 1.36 0 0 Z " fill="#36CE69" transform="translate(320,101)"/>
<path d="M0 0 C1.485 0.99 1.485 0.99 3 2 C2.67 4.31 2.34 6.62 2 9 C1.01 9 0.02 9 -1 9 C-1.08886184 5.80097361 -0.91058531 3.07322544 0 0 Z " fill="#35D96E" transform="translate(130,412)"/>
<path d="M0 0 C0.66 1.32 1.32 2.64 2 4 C-1.3 4 -4.6 4 -8 4 C-8 3.01 -8 2.02 -8 1 C-6.865625 1.020625 -5.73125 1.04125 -4.5625 1.0625 C-1.18424326 1.41577477 -1.18424326 1.41577477 0 0 Z " fill="#2BE24F" transform="translate(175,414)"/>
<path d="M0 0 C1.30048841 2.60097682 1.56471422 5.13955062 2 8 C0.35 7.67 -1.3 7.34 -3 7 C-3 5.02 -3 3.04 -3 1 C-2.01 0.67 -1.02 0.34 0 0 Z " fill="#28DE5B" transform="translate(286,410)"/>
<path d="M0 0 C1.32 0 2.64 0 4 0 C4 0.66 4 1.32 4 2 C5.65 2 7.3 2 9 2 C9.33 2.66 9.66 3.32 10 4 C7.36 4.33 4.72 4.66 2 5 C1.34 3.35 0.68 1.7 0 0 Z " fill="#2FD864" transform="translate(214,410)"/>
<path d="M0 0 C1.32 0 2.64 0 4 0 C4 0.66 4 1.32 4 2 C3.01 2.495 3.01 2.495 2 3 C1.34786708 5.02463255 1.34786708 5.02463255 1 7 C-0.32 6.67 -1.64 6.34 -3 6 C-2.34 5.34 -1.68 4.68 -1 4 C-1 3.01 -1 2.02 -1 1 C-0.67 0.67 -0.34 0.34 0 0 Z " fill="#47D074" transform="translate(70,408)"/>
<path d="M0 0 C1.98 0.66 3.96 1.32 6 2 C6 2.66 6 3.32 6 4 C2.37 4 -1.26 4 -5 4 C-2 2 -2 2 0 2 C0 1.34 0 0.68 0 0 Z " fill="#29DD62" transform="translate(215,313)"/>
<path d="M0 0 C2.78211944 0.37596209 4.5879284 0.67318459 6.8125 2.4375 C8 4 8 4 8 6 C5.21788056 5.62403791 3.4120716 5.32681541 1.1875 3.5625 C0 2 0 2 0 0 Z " fill="#46D574" transform="translate(46,411)"/>
<path d="M0 0 C0.99 0 1.98 0 3 0 C3.33 2.64 3.66 5.28 4 8 C3.01 8 2.02 8 1 8 C0.67 5.36 0.34 2.72 0 0 Z " fill="#2AD767" transform="translate(145,409)"/>
<path d="M0 0 C2.31 0 4.62 0 7 0 C7.33 0.99 7.66 1.98 8 3 C6.02 3.66 4.04 4.32 2 5 C1.34 3.35 0.68 1.7 0 0 Z " fill="#40CC74" transform="translate(254,408)"/>
<path d="M0 0 C2.31 0 4.62 0 7 0 C6.34 1.32 5.68 2.64 5 4 C2.03 3.505 2.03 3.505 -1 3 C-0.67 2.01 -0.34 1.02 0 0 Z " fill="#42D477" transform="translate(322,405)"/>
<path d="M0 0 C0.66 0 1.32 0 2 0 C0.25740319 9.59453303 0.25740319 9.59453303 -3 13 C-2.343621 8.51474352 -1.29925791 4.33085971 0 0 Z " fill="#37CE67" transform="translate(333,220)"/>
<path d="M0 0 C7.50769231 -0.36923077 7.50769231 -0.36923077 10 1.5 C10.495 2.2425 10.495 2.2425 11 3 C3.57142857 3.14285714 3.57142857 3.14285714 0 2 C0 1.34 0 0.68 0 0 Z " fill="#27DA60" transform="translate(188,203)"/>
<path d="M0 0 C1.32 1.32 2.64 2.64 4 4 C3.01 4.495 3.01 4.495 2 5 C2 5.99 2 6.98 2 8 C0.35 6.02 -1.3 4.04 -3 2 C-2.01 2 -1.02 2 0 2 C0 1.34 0 0.68 0 0 Z " fill="#39C96D" transform="translate(176,193)"/>
<path d="M0 0 C0.99 0.33 1.98 0.66 3 1 C2.67 3.31 2.34 5.62 2 8 C1.01 7.67 0.02 7.34 -1 7 C-0.67 4.69 -0.34 2.38 0 0 Z " fill="#29E957" transform="translate(86,410)"/>
<path d="M0 0 C4 0 4 0 6 1 C5.67 1.66 5.34 2.32 5 3 C4.01 3 3.02 3 2 3 C2 4.98 2 6.96 2 9 C1.34 8.67 0.68 8.34 0 8 C0 5.36 0 2.72 0 0 Z " fill="#43CB70" transform="translate(281,408)"/>
<path d="M0 0 C1.0326802 2.78823655 1.04509293 3.8677274 0.0625 6.75 C-0.288125 7.4925 -0.63875 8.235 -1 9 C-2.65 9 -4.3 9 -6 9 C-4.68 8.34 -3.36 7.68 -2 7 C-2 5.68 -2 4.36 -2 3 C-1.34 3 -0.68 3 0 3 C0 2.01 0 1.02 0 0 Z " fill="#2ADA61" transform="translate(230,370)"/>
<path d="M0 0 C2.0625 0.4375 2.0625 0.4375 4 1 C4.33 2.32 4.66 3.64 5 5 C3.68 5.33 2.36 5.66 1 6 C0.34 4.35 -0.32 2.7 -1 1 C-0.67 0.67 -0.34 0.34 0 0 Z " fill="#20E054" transform="translate(366,333)"/>
<path d="M0 0 C-1.45264038 0.8638129 -2.9123163 1.71580454 -4.375 2.5625 C-5.59316406 3.27599609 -5.59316406 3.27599609 -6.8359375 4.00390625 C-7.55007813 4.33261719 -8.26421875 4.66132813 -9 5 C-9.66 4.67 -10.32 4.34 -11 4 C-10.01 3.67 -9.02 3.34 -8 3 C-8 2.01 -8 1.02 -8 0 C-4.71303767 -0.79953138 -3.28976808 -1.09658936 0 0 Z " fill="#3BCB66" transform="translate(275,298)"/>
<path d="M0 0 C2.3125 -0.3125 2.3125 -0.3125 5 0 C6.8125 2.5 6.8125 2.5 8 5 C7.01 5.495 7.01 5.495 6 6 C3.97945196 4.35830472 1.97956942 2.69088222 0 1 C0 0.67 0 0.34 0 0 Z " fill="#2BD862" transform="translate(130,298)"/>
<path d="M0 0 C0.66 0 1.32 0 2 0 C2 2.31 2 4.62 2 7 C1.01 7 0.02 7 -1 7 C-0.67 4.69 -0.34 2.38 0 0 Z " fill="#31D762" transform="translate(114,410)"/>
<path d="M0 0 C0 0.66 0 1.32 0 2 C-2.70879335 3.35439668 -5.00933268 3.06501451 -8 3 C-8 2.34 -8 1.68 -8 1 C-5.29120665 -0.35439668 -2.99066732 -0.06501451 0 0 Z " fill="#27DB5F" transform="translate(210,203)"/>
<path d="M0 0 C3.39914975 1.13304992 4.05254451 2.12518475 6 5 C4.02 5 2.04 5 0 5 C-0.33 4.01 -0.66 3.02 -1 2 C-0.67 1.34 -0.34 0.68 0 0 Z " fill="#36D45D" transform="translate(217,100)"/>
<path d="M0 0 C0.66 0.33 1.32 0.66 2 1 C2 2.98 2 4.96 2 7 C1.01 7 0.02 7 -1 7 C-1.04254356 5.00045254 -1.04080783 2.99958364 -1 1 C-0.67 0.67 -0.34 0.34 0 0 Z " fill="#4AD075" transform="translate(235,410)"/>
<path d="M0 0 C0.66 0 1.32 0 2 0 C2.125 2.875 2.125 2.875 2 6 C1.34 6.66 0.68 7.32 0 8 C-0.33 7.67 -0.66 7.34 -1 7 C-0.71269945 4.66055264 -0.38063221 2.3260857 0 0 Z " fill="#41CB76" transform="translate(267,408)"/>
<path d="M0 0 C2.97 0.495 2.97 0.495 6 1 C5.34 2.32 4.68 3.64 4 5 C1.525 4.01 1.525 4.01 -1 3 C-0.67 2.01 -0.34 1.02 0 0 Z " fill="#22DE56" transform="translate(358,355)"/>
<path d="M0 0 C1.32 0 2.64 0 4 0 C4 0.99 4 1.98 4 3 C3.34 3 2.68 3 2 3 C1.67 3.99 1.34 4.98 1 6 C0.01 5.34 -0.98 4.68 -2 4 C-1.34 4 -0.68 4 0 4 C0 2.68 0 1.36 0 0 Z " fill="#34D767" transform="translate(164,163)"/>
<path d="M0 0 C1.32 0.33 2.64 0.66 4 1 C4 4.96 4 8.92 4 13 C3.67 13 3.34 13 3 13 C3 9.7 3 6.4 3 3 C2.34 3 1.68 3 1 3 C0.67 2.01 0.34 1.02 0 0 Z " fill="#2ED963" transform="translate(223,132)"/>
<path d="M0 0 C1.1725131 0.95117134 2.33787015 1.91117009 3.5 2.875 C4.47453125 3.67550781 4.47453125 3.67550781 5.46875 4.4921875 C5.9740625 4.98976563 6.479375 5.48734375 7 6 C7 6.66 7 7.32 7 8 C4 7 4 7 1 5 C0.3125 2.375 0.3125 2.375 0 0 Z " fill="#3ACA67" transform="translate(303,79)"/>
<path d="M0 0 C-2.55068845 2.35448165 -3.71017358 2.98327924 -7.25 3.1875 C-8.1575 3.125625 -9.065 3.06375 -10 3 C-10 2.34 -10 1.68 -10 1 C-6.59437148 0.22157062 -3.49234244 -0.09978121 0 0 Z " fill="#3AD366" transform="translate(181,36)"/>
<path d="M0 0 C0.33 1.98 0.66 3.96 1 6 C0.4121875 5.2575 0.4121875 5.2575 -0.1875 4.5 C-2.55091715 2.54406857 -4.01435003 2.75792027 -7 3 C-7 2.34 -7 1.68 -7 1 C-4.50935112 0.31292445 -2.62113708 0 0 0 Z " fill="#41CC6C" transform="translate(351,366)"/>
<path d="M0 0 C0.99 0.33 1.98 0.66 3 1 C2.34 4.63 1.68 8.26 1 12 C0.67 12 0.34 12 0 12 C-0.19401633 10.18818595 -0.38004375 8.37551468 -0.5625 6.5625 C-0.66691406 5.55316406 -0.77132812 4.54382813 -0.87890625 3.50390625 C-0.91886719 2.67761719 -0.95882812 1.85132813 -1 1 C-0.67 0.67 -0.34 0.34 0 0 Z " fill="#36CD5E" transform="translate(233,170)"/>
<path d="M0 0 C0.66 0.33 1.32 0.66 2 1 C0.68 2.32 -0.64 3.64 -2 5 C-3.32 4.34 -4.64 3.68 -6 3 C-4 2 -2 1 0 0 Z " fill="#2FD75E" transform="translate(135,97)"/>
<path d="M0 0 C0.66 0 1.32 0 2 0 C2 2.64 2 5.28 2 8 C1.01 7.67 0.02 7.34 -1 7 C-0.67 4.69 -0.34 2.38 0 0 Z " fill="#34E160" transform="translate(202,410)"/>
<path d="M0 0 C0.99 0 1.98 0 3 0 C2.67 2.64 2.34 5.28 2 8 C1.34 7.67 0.68 7.34 0 7 C0 4.69 0 2.38 0 0 Z " fill="#32DB6A" transform="translate(239,409)"/>
<path d="M0 0 C-1.125 1.5625 -1.125 1.5625 -3 3 C-6.1875 2.6875 -6.1875 2.6875 -9 2 C-4 -1.33333333 -4 -1.33333333 0 0 Z " fill="#39D268" transform="translate(161,41)"/>
</svg>
