<?xml version="1.0" encoding="UTF-8"?>
<!DOCTYPE svg PUBLIC "-//W3C//DTD SVG 1.1//EN" "http://www.w3.org/Graphics/SVG/1.1/DTD/svg11.dtd">
<svg xmlns="http://www.w3.org/2000/svg" version="1.1" width="256px" height="256px" style="shape-rendering:geometricPrecision; text-rendering:geometricPrecision; image-rendering:optimizeQuality; fill-rule:evenodd; clip-rule:evenodd" xmlns:xlink="http://www.w3.org/1999/xlink">
<g><path style="opacity:1" fill="#f3f2f1" d="M -0.5,-0.5 C 84.8333,-0.5 170.167,-0.5 255.5,-0.5C 255.5,84.8333 255.5,170.167 255.5,255.5C 170.167,255.5 84.8333,255.5 -0.5,255.5C -0.5,170.167 -0.5,84.8333 -0.5,-0.5 Z"/></g>
<g><path style="opacity:1" fill="#f3673e" d="M 121.5,11.5 C 84.8333,11.5 48.1667,11.5 11.5,11.5C 11.5,48.1667 11.5,84.8333 11.5,121.5C 10.5015,84.6704 10.1682,47.6704 10.5,10.5C 47.6704,10.1682 84.6704,10.5015 121.5,11.5 Z"/></g>
<g><path style="opacity:1" fill="#f25324" d="M 121.5,11.5 C 121.5,48.1667 121.5,84.8333 121.5,121.5C 84.8333,121.5 48.1667,121.5 11.5,121.5C 11.5,84.8333 11.5,48.1667 11.5,11.5C 48.1667,11.5 84.8333,11.5 121.5,11.5 Z"/></g>
<g><path style="opacity:1" fill="#82bc0d" d="M 132.5,10.5 C 169.833,10.5 207.167,10.5 244.5,10.5C 244.5,47.8333 244.5,85.1667 244.5,122.5C 207.498,122.667 170.498,122.5 133.5,122C 132.504,84.9061 132.17,47.7394 132.5,10.5 Z"/></g>
<g><path style="opacity:1" fill="#10a6f0" d="M 10.5,132.5 C 47.5015,132.333 84.5015,132.5 121.5,133C 122.496,170.094 122.83,207.261 122.5,244.5C 85.1667,244.5 47.8333,244.5 10.5,244.5C 10.5,207.167 10.5,169.833 10.5,132.5 Z"/></g>
<g><path style="opacity:1" fill="#feba0f" d="M 133.5,132.5 C 170.5,132.5 207.5,132.5 244.5,132.5C 244.5,169.833 244.5,207.167 244.5,244.5C 207.167,244.5 169.833,244.5 132.5,244.5C 132.173,207.094 132.507,169.761 133.5,132.5 Z"/></g>
</svg>
